<svg width="36" height="36" viewBox="0 0 36 36" fill="none" xmlns="http://www.w3.org/2000/svg">
<path fill-rule="evenodd" clip-rule="evenodd" d="M4.92612 6.8085C3.47583 9.74518 2.50209 9.90781 1.03492 12.6351C-0.617991 15.7027 -0.299041 23.8715 2.04993 26.5783C3.7779 28.571 6.38954 31.5525 9.22632 33.4947C10.8173 34.5864 17.1532 36.3903 19.6616 35.9248C23.2395 35.2538 23.08 34.8182 26.2676 33.9546C28.3821 33.3807 31.8699 29.9842 34.1007 26.6175C36.5904 22.8584 35.4628 18.9123 35.4384 18.3029C35.3859 16.9944 36.6523 14.839 35.5435 13.1529C32.93 9.17692 33.3427 6.94309 29.0163 3.55965C27.8117 2.62499 23.3877 1.85484 20.7836 0.641658C15.686 -1.73236 6.82481 2.96708 4.92612 6.81037V6.8085ZM20.4628 0.912708C20.5312 0.928419 20.596 0.957417 20.6532 0.998048C20.7105 1.03868 20.7591 1.09015 20.7964 1.14951C20.8337 1.20887 20.8589 1.27497 20.8705 1.34404C20.8821 1.4131 20.88 1.48377 20.8643 1.55201C20.8485 1.62025 20.8194 1.68474 20.7786 1.74177C20.7378 1.79881 20.6862 1.84728 20.6266 1.88443C20.567 1.92158 20.5007 1.94667 20.4313 1.95827C20.362 1.96987 20.2911 1.96775 20.2226 1.95204C18.8117 1.638 16.534 1.67165 14.4552 2.06607C12.7404 2.39133 11.1869 2.95212 10.4327 3.74845C10.2732 3.91668 10.2169 3.99893 10.2451 4.01576C11.14 4.85508 16.6541 4.45131 18.7948 4.29428C19.0406 4.27559 19.2414 4.26064 19.4271 4.24942C19.7742 4.22886 20.2376 4.19147 20.7404 4.15222C24.1476 3.88304 29.2451 3.4774 30.6298 5.91311C31.2733 7.03469 30.8718 7.74503 30.0557 8.20675C29.3859 8.58061 28.4234 8.73389 27.6748 8.84979C27.5041 8.87596 27.3465 8.90026 27.2076 8.92456C24.489 9.41619 20.7292 9.29842 17.0068 9.19C13.5265 9.08532 10.08 8.98251 7.63719 9.37693C6.16627 9.6162 4.55276 10.4761 3.77227 11.3902C3.56982 11.5955 3.43219 11.8555 3.37639 12.1379C3.3721 12.2308 3.39154 12.3232 3.43289 12.4066C3.47423 12.49 3.53613 12.5615 3.61279 12.6146C4.16064 13.0632 5.43081 13.3623 7.75164 13.3511C7.95802 13.3511 8.26759 13.3511 8.66534 13.3361L10.0725 13.3043C10.1427 13.3026 10.2126 13.3147 10.2781 13.3399C10.3436 13.3651 10.4035 13.4029 10.4544 13.4511C10.5053 13.4994 10.5461 13.5572 10.5746 13.6211C10.6031 13.6851 10.6186 13.7541 10.6203 13.824C10.622 13.894 10.6099 13.9636 10.5846 14.0289C10.5594 14.0942 10.5214 14.1539 10.473 14.2046C10.4246 14.2552 10.3666 14.2959 10.3024 14.3243C10.2382 14.3527 10.169 14.3681 10.0987 14.3699L8.68598 14.4016C8.29386 14.4016 7.97678 14.4147 7.74789 14.4166C5.14938 14.4315 3.65032 14.0315 2.92611 13.4371C2.71117 13.278 2.54096 13.0665 2.43186 12.823C2.32277 12.5794 2.27846 12.3119 2.30322 12.0463C2.37763 11.5461 2.60345 11.0805 2.9505 10.7116C3.87546 9.62742 5.76477 8.61052 7.45333 8.33573C9.9918 7.92261 13.4909 8.02916 17.0218 8.13384C20.6898 8.24413 24.3952 8.35629 27.005 7.88522C27.1495 7.85905 27.3164 7.83475 27.4947 7.80671C28.1588 7.7039 29.0106 7.57118 29.5116 7.28892C29.7949 7.12815 29.9262 6.87393 29.6842 6.4496C28.6354 4.60646 23.9449 4.97845 20.808 5.22707C20.3464 5.26446 19.9168 5.2981 19.4759 5.32427L18.8567 5.36914C16.5866 5.5355 10.7366 5.96358 9.49836 4.80834C8.9918 4.33354 8.97116 3.74845 9.65034 3.0325C10.5809 2.04177 12.3427 1.38003 14.2639 1.01739C16.474 0.598664 18.9205 0.568755 20.4552 0.912708H20.4628ZM25.8605 13.9698C25.7878 13.9748 25.7149 13.965 25.6462 13.9409C25.5775 13.9168 25.5145 13.8789 25.4609 13.8297C25.4074 13.7805 25.3646 13.7208 25.335 13.6545C25.3055 13.5882 25.2898 13.5165 25.2891 13.4439C25.2883 13.3714 25.3024 13.2994 25.3306 13.2325C25.3587 13.1655 25.4003 13.105 25.4527 13.0547C25.5052 13.0043 25.5674 12.9652 25.6356 12.9396C25.7038 12.9141 25.7765 12.9027 25.8493 12.9062H26.2245H26.5322C27.8324 12.9062 30.7405 13.0296 32.7555 13.8782C33.3548 14.1092 33.8978 14.4648 34.3484 14.9213C34.7951 15.3831 35.0446 15.9996 35.0444 16.6411C35.0347 17.0924 34.9346 17.5373 34.7499 17.9496C34.3746 18.83 33.5754 19.445 32.6373 19.8413C31.4809 20.304 30.2455 20.5395 28.9994 20.5348C28.7161 20.5348 28.3389 20.5199 27.9525 20.5068C27.566 20.4937 27.1495 20.4731 26.8399 20.4601C26.6981 20.4539 26.5645 20.3918 26.4687 20.2875C26.3728 20.1832 26.3224 20.0452 26.3286 19.9039C26.3348 19.7626 26.3971 19.6296 26.5018 19.5341C26.6065 19.4385 26.745 19.3884 26.8868 19.3945C27.217 19.4095 27.6279 19.4282 27.99 19.4413C28.3802 19.4544 28.7517 19.4675 29.0031 19.4693C30.1032 19.4746 31.194 19.2677 32.2151 18.8599C32.9225 18.5552 33.5153 18.1253 33.7649 17.5346C33.8929 17.2508 33.963 16.9446 33.9712 16.6336C33.9715 16.2577 33.824 15.8967 33.5604 15.6279C33.2126 15.2833 32.7958 15.0157 32.3371 14.8428C30.5022 14.0708 27.7592 13.9605 26.5209 13.9605H26.2264H25.8511L25.8605 13.9698ZM9.14189 18.5627C9.27995 18.5781 9.40661 18.6463 9.49524 18.7529C9.58387 18.8595 9.62756 18.9962 9.61711 19.1342C9.60666 19.2722 9.54289 19.4008 9.43921 19.493C9.33554 19.5851 9.20003 19.6336 9.06121 19.6282C8.0781 19.5516 7.0462 19.4974 6.11374 19.4918C5.41916 19.4819 4.72468 19.5181 4.03493 19.6002C3.2657 19.7067 2.57526 19.8619 2.14562 20.189C1.77038 20.4694 1.59215 20.9255 1.7141 21.6845C1.83605 22.4434 2.1869 23.3668 3.05557 23.9164C3.6991 24.3258 4.63906 24.5351 5.99929 24.337C6.40079 24.279 7.31262 24.2323 8.3614 24.1781C9.50212 24.1202 10.8117 24.0529 11.7685 23.9538C11.8388 23.9458 11.91 23.9517 11.978 23.9713C12.046 23.9909 12.1094 24.0238 12.1645 24.068C12.2196 24.1122 12.2654 24.1668 12.2992 24.2288C12.333 24.2907 12.3541 24.3587 12.3613 24.4289C12.3685 24.499 12.3616 24.5699 12.3412 24.6374C12.3207 24.7048 12.2869 24.7676 12.2419 24.822C12.1969 24.8764 12.1415 24.9213 12.0789 24.9542C12.0163 24.9872 11.9478 25.0074 11.8774 25.0137C10.8924 25.1165 9.56966 25.1838 8.41581 25.2436C7.40267 25.296 6.52274 25.3408 6.15314 25.3932C4.50585 25.6343 3.32198 25.352 2.48146 24.8193C1.29196 24.0716 0.811657 22.8341 0.655934 21.8471C0.468316 20.6283 0.819162 19.8525 1.49459 19.3385C2.1081 18.8711 2.96176 18.6674 3.88859 18.5403C4.62794 18.4499 5.37272 18.4112 6.11749 18.4244C7.10811 18.4244 8.16065 18.4823 9.14189 18.559V18.5627ZM24.6729 24.98C24.6028 24.9751 24.5344 24.9565 24.4715 24.9252C24.4086 24.894 24.3525 24.8507 24.3065 24.7978C24.2604 24.745 24.2252 24.6836 24.2029 24.6172C24.1806 24.5508 24.1717 24.4807 24.1766 24.4108C24.1816 24.341 24.2003 24.2728 24.2316 24.2102C24.263 24.1475 24.3065 24.0916 24.3595 24.0457C24.4126 23.9998 24.4742 23.9648 24.5408 23.9426C24.6075 23.9204 24.6778 23.9115 24.7479 23.9164C25.005 23.9332 25.3108 23.9594 25.6729 23.993C26.035 24.0267 26.3446 24.0566 26.6335 24.0884C26.8755 24.1145 27.1851 24.1388 27.5153 24.1669C28.8155 24.2716 30.4084 24.4006 31.3652 24.98C32.3221 25.5595 32.6617 26.4231 31.8043 27.8289C31.1551 28.8944 28.945 29.4103 26.2733 29.6178C22.1157 29.9468 16.716 29.5916 14.7817 29.371C13.8736 29.2701 12.1325 29.2645 10.7798 29.6645C9.98992 29.8982 9.3539 30.2608 9.19067 30.8123C9.15926 30.9116 9.14158 31.0148 9.13814 31.1188C9.12313 31.689 9.70099 32.1283 10.6091 32.4666C11.6841 32.8648 13.1832 33.0947 14.7929 33.2143C18.3952 33.4891 22.4853 33.2256 23.7986 33.1078C23.9399 33.0956 24.0803 33.1399 24.1888 33.2309C24.2974 33.3219 24.3652 33.4521 24.3774 33.5929C24.3896 33.7337 24.3451 33.8735 24.2538 33.9817C24.1625 34.0898 24.0318 34.1574 23.8905 34.1696C22.5603 34.2892 18.3802 34.5602 14.7216 34.2798C13.0331 34.1509 11.429 33.906 10.2432 33.4611C8.88485 32.9657 8.03682 32.2086 8.06496 31.0871C8.07014 30.8894 8.10169 30.6932 8.15877 30.5038C8.44583 29.5411 9.3614 28.9617 10.474 28.6345C11.9749 28.1896 13.898 28.1952 14.8943 28.3037C16.8005 28.513 22.1063 28.8645 26.1926 28.5542C28.551 28.3672 30.4553 27.9934 30.8831 27.2793C31.3108 26.5652 31.202 26.1334 30.8042 25.8923C30.0707 25.4474 28.6147 25.3315 27.4271 25.2343C27.1082 25.2081 26.8099 25.1838 26.5116 25.1501C26.1551 25.1109 25.8436 25.081 25.5735 25.0548L24.6691 24.9819L24.6729 24.98ZM15.1269 11.0668C16.6429 10.3452 18.5659 9.87043 20.2545 10.3882C23.793 11.4724 23.6973 12.7342 25.414 14.4128C27.5603 16.5065 26.1513 26.7877 17.3033 26.3315C14.9018 26.2082 10.1944 22.9406 9.96553 20.4358C9.73101 17.8785 9.81356 18.6188 10.5753 15.8186C11.4383 12.6538 13.4421 11.8687 15.1269 11.0668Z" fill="white"/>
</svg>
