<svg width="36" height="36" viewBox="0 0 36 36" fill="none" xmlns="http://www.w3.org/2000/svg">
<g style="mix-blend-mode:luminosity">
<path opacity="0.2" d="M19.0855 12.1129C18.7421 11.7927 18.3387 11.5529 17.9017 11.4091C17.4647 11.2654 17.004 11.2208 16.5496 11.2785C16.0953 11.3362 15.6575 11.4947 15.265 11.7437C14.8725 11.9928 14.5341 12.3267 14.2719 12.7237C13.5541 13.9454 12.7659 17.8488 14.3423 18.6831C14.0127 17.0128 14.1098 15.2796 14.6238 13.6623C15.3838 11.2935 17.4388 12.6343 19.0152 12.3513C19.1278 12.3066 19.1418 12.1725 19.0855 12.1129Z" fill="#442500"/>
<path opacity="0.2" d="M22.562 16.5377C22.3508 15.5097 21.2389 12.2321 19.8596 12.6343C19.8479 12.6441 19.8384 12.6565 19.8319 12.6707C19.8254 12.6849 19.822 12.7005 19.822 12.7163C19.822 12.732 19.8254 12.7476 19.8319 12.7618C19.8384 12.776 19.8479 12.7885 19.8596 12.7982C20.5421 13.75 21.0439 14.8327 21.3374 15.9865C21.5771 16.5502 21.6757 17.1697 21.624 17.7854C21.5722 18.4011 21.3718 18.9924 21.0419 19.5025C20.7945 19.7275 20.531 19.9317 20.2537 20.1133C19.9526 20.4073 19.6792 20.7317 19.4373 21.0817C19.4222 21.1028 19.4126 21.1279 19.4097 21.1542C19.4067 21.1805 19.4104 21.2072 19.4205 21.2315C19.4305 21.2558 19.4465 21.2768 19.4668 21.2924C19.4871 21.308 19.5109 21.3175 19.5359 21.3201C22.0975 21.5287 22.942 18.8619 22.562 16.5377Z" fill="#442500"/>
<path opacity="0.2" d="M18.7336 21.5585C17.8123 21.396 16.9107 21.1262 16.0453 20.7539C15.2712 20.2921 14.7504 19.5174 14.0186 19.0108C14.2297 20.9029 17.1573 23.0781 18.7899 21.7968C18.8094 21.7809 18.8241 21.7593 18.8322 21.7347C18.8403 21.71 18.8414 21.6834 18.8355 21.6582C18.8295 21.6329 18.8167 21.61 18.7986 21.5922C18.7805 21.5745 18.7579 21.5628 18.7336 21.5585Z" fill="#442500"/>
<path opacity="0.2" d="M11.0206 30.5273C9.6131 30.1101 8.20561 30.8252 6.88257 30.0058C7.50186 31.4957 9.92274 31.3169 11.105 30.6912C11.1256 30.6793 11.1408 30.6593 11.1474 30.6356C11.154 30.6118 11.1514 30.5863 11.1402 30.5645C11.129 30.5428 11.1101 30.5267 11.0877 30.5197C11.0653 30.5127 11.0411 30.5154 11.0206 30.5273Z" fill="#442500"/>
<path opacity="0.2" d="M12.7093 33.8645C12.7093 33.79 12.3575 33.7155 12.3152 33.6559C12.273 33.5963 12.0337 33.4623 11.9634 33.3729C11.7874 33.157 11.6406 32.9163 11.527 32.6577C11.4285 32.2853 11.33 31.6596 11.0204 31.4361C10.9968 31.4217 10.9701 31.4141 10.9429 31.4141C10.9158 31.4141 10.8891 31.4217 10.8655 31.4361C10.4433 31.7489 10.57 32.6577 10.6685 33.1047C10.7287 33.4575 10.8852 33.7838 11.1189 34.0433C11.178 34.1119 11.2496 34.1671 11.3294 34.2055C11.4093 34.2439 11.4957 34.2648 11.5833 34.2668C11.6706 34.2945 11.7636 34.2945 11.8508 34.2668H11.9211C12.0056 34.1625 12.3434 34.1625 12.273 34.2668C12.2026 34.3711 12.7093 33.8645 12.7093 33.8645Z" fill="#442500"/>
<path opacity="0.2" d="M6.65744 31.9724C6.22651 31.7315 5.87868 31.3524 5.66377 30.8894C5.44886 30.4264 5.37791 29.9033 5.46107 29.395C5.46107 29.395 5.46107 29.395 5.46107 29.395C4.05358 30.274 5.78479 33.4772 6.74189 32.2108C6.77175 32.199 6.79594 32.175 6.80914 32.1443C6.82234 32.1136 6.82346 32.0785 6.81226 32.0469C6.80106 32.0153 6.77846 31.9897 6.74942 31.9757C6.72039 31.9618 6.6873 31.9606 6.65744 31.9724Z" fill="#442500"/>
<path opacity="0.2" d="M6.23513 23.5399C5.63442 23.226 5.0136 22.9572 4.37724 22.7354C4.01824 22.617 3.70325 22.3825 3.47645 22.065C3.47645 21.9756 3.30755 21.6925 3.13865 21.7223V21.5734C3.11211 21.5528 3.08007 21.5417 3.04717 21.5417C3.01427 21.5417 2.98222 21.5528 2.95568 21.5734C2.47812 22.026 2.13571 22.6162 1.97044 23.2718C1.77731 24.0235 1.33196 24.675 0.717773 25.1043C0.717773 25.1043 0.717773 25.1043 0.717773 25.1043C1.44967 26.2068 2.74456 24.3147 3.12458 22.8248C3.28538 23.072 3.47448 23.2972 3.68758 23.4953C4.0611 23.7731 4.49736 23.9414 4.95216 23.9833C5.40696 24.0252 5.86413 23.939 6.27736 23.7336C6.29016 23.7193 6.29942 23.7019 6.30431 23.6829C6.30921 23.6639 6.30958 23.644 6.3054 23.6248C6.30122 23.6056 6.29261 23.5878 6.28035 23.573C6.26809 23.5582 6.25255 23.5468 6.23513 23.5399Z" fill="#442500"/>
<path opacity="0.2" d="M5.30648 26.4898C4.33531 26.2514 3.36414 26.4898 2.40705 26.2514C2.22408 26.2514 1.42181 25.7896 1.29513 25.9237C0.943261 26.3557 1.99888 26.9964 2.28038 27.1304C2.77613 27.3888 3.33276 27.4871 3.88088 27.4129C4.42901 27.3387 4.94439 27.0954 5.36278 26.7133C5.3783 26.6967 5.38945 26.676 5.39511 26.6534C5.40078 26.6308 5.40076 26.6071 5.39507 26.5845C5.38938 26.5619 5.37821 26.5413 5.36267 26.5247C5.34713 26.5081 5.32776 26.4961 5.30648 26.4898Z" fill="#442500"/>
<path opacity="0.2" d="M16.7916 27.1305C16.5755 26.7803 16.2985 26.4769 15.9752 26.2365C15.8453 26.1383 15.6962 26.0721 15.5389 26.0429C15.3295 25.9168 15.0894 25.8598 14.8492 25.879C14.8062 25.5637 14.6954 25.263 14.5255 25C14.5175 24.9772 14.5031 24.9575 14.4842 24.9436C14.4654 24.9297 14.4429 24.9223 14.4199 24.9223C14.397 24.9223 14.3745 24.9297 14.3556 24.9436C14.3368 24.9575 14.3224 24.9772 14.3144 25C13.7655 25.9386 13.4417 26.8921 12.9773 27.8754C12.8281 28.1187 12.6482 28.3393 12.4424 28.5309C11.9705 28.5457 11.5002 28.5955 11.0349 28.6799C10.5628 28.6293 10.0859 28.6697 9.62744 28.7991V28.9034C10.0544 29.2372 10.5747 29.4103 11.1053 29.395C11.3777 29.415 11.6509 29.3744 11.9076 29.2758C11.882 29.3834 11.882 29.496 11.9076 29.6036C12.6254 29.097 13.3151 28.963 13.9344 28.2776L14.061 28.4564C14.3848 28.8885 15.4685 29.6483 15.7641 28.8736C15.815 29.0179 15.9167 29.1357 16.0479 29.2024C16.1791 29.2691 16.3296 29.2794 16.4678 29.2311C17.5094 28.9034 17.1997 27.786 16.7916 27.1305ZM15.8204 28.7395C15.7078 28.6501 15.6093 28.516 15.4967 28.4266C15.3841 28.3372 15.0463 28.1435 14.8211 27.9797L14.4411 27.6817C14.6523 27.2934 14.782 26.8615 14.8211 26.4153H14.9477L15.0885 26.5047C15.0885 26.5047 15.0885 26.6239 15.0885 26.6835C15.1952 27.0584 15.3618 27.4111 15.5811 27.7264C15.7299 27.9355 15.8001 28.1956 15.7782 28.4564C15.7712 28.5456 15.7712 28.6353 15.7782 28.7246L15.8204 28.7395Z" fill="#442500"/>
<path opacity="0.2" d="M16.9319 29.8122C16.2242 29.9271 15.5696 30.278 15.0633 30.8139C14.557 31.3498 14.2255 32.0427 14.1169 32.7918C14.097 32.8613 14.0929 32.9347 14.1048 33.0061C14.1167 33.0775 14.1443 33.145 14.1854 33.2031C14.2265 33.2611 14.28 33.3081 14.3415 33.3401C14.4029 33.3722 14.4707 33.3886 14.5392 33.3878C15.1866 33.3878 15.5385 32.7471 15.9467 32.3002C16.5426 31.7073 16.9464 30.9304 17.1008 30.0803C17.1268 30.0536 17.1431 30.0182 17.1469 29.9801C17.1507 29.942 17.1418 29.9037 17.1218 29.8719C17.1017 29.84 17.0717 29.8166 17.037 29.8057C17.0024 29.7948 16.9652 29.7971 16.9319 29.8122Z" fill="#442500"/>
<path opacity="0.2" d="M20.0706 32.3747C20.4928 32.3747 20.8728 32.032 21.0699 31.3467C21.1859 30.4874 21.1101 29.6112 20.8485 28.7885C20.587 27.9658 20.147 27.2193 19.5639 26.609C19.5451 26.5892 19.5214 26.5754 19.4955 26.5692C19.4697 26.563 19.4427 26.5647 19.4177 26.574C19.3927 26.5834 19.3707 26.6 19.3542 26.622C19.3377 26.644 19.3275 26.6705 19.3246 26.6984C19.2891 27.3404 19.3175 27.9845 19.409 28.6203C19.4794 28.9778 19.5639 29.3503 19.6202 29.7228C19.6866 30.0076 19.7383 30.2961 19.775 30.5869C19.6529 30.5219 19.5142 30.5006 19.3796 30.526C19.245 30.5514 19.1219 30.6221 19.0284 30.7277C18.935 30.8333 18.8764 30.9681 18.8613 31.1118C18.8461 31.2556 18.8754 31.4007 18.9446 31.5255C18.832 31.7936 18.6912 31.7787 18.5364 31.5255C18.376 31.3449 18.23 31.1506 18.1001 30.9444C17.889 30.6167 17.8186 30.2293 17.6215 29.8867C16.9741 30.423 17.6215 31.6298 18.1141 32.33C17.7035 32.5594 17.3657 32.9118 17.143 33.3431C16.9428 33.7843 16.9027 34.288 17.0304 34.7584L16.8333 34.3264C16.6363 33.8645 16.5941 33.3431 16.397 32.8365C16.397 32.8365 16.2985 32.8365 16.2422 32.8365C15.6229 33.1196 15.8059 34.1923 15.9185 34.7435C16.0064 35.1289 16.1802 35.4865 16.4252 35.7864C16.6644 36.0695 16.96 36.0099 17.2556 35.9503C17.2771 35.9445 17.2969 35.9334 17.3136 35.9179C17.3302 35.9025 17.3432 35.883 17.3515 35.8613C17.3597 35.8395 17.3629 35.816 17.361 35.7926C17.359 35.7692 17.3518 35.7467 17.34 35.7268C17.34 35.7268 17.34 35.5182 17.34 35.3544C17.6215 34.9521 17.6778 34.3711 18.0578 34.0433C18.4379 33.7155 18.4801 33.7155 18.6912 33.5219C18.7641 33.7323 18.8842 33.9208 19.0411 34.0713C19.198 34.2218 19.387 34.3298 19.592 34.386C19.8602 34.4766 20.1502 34.4617 20.4088 34.344C20.6674 34.2263 20.8772 34.0137 20.9995 33.7453C21.0094 33.7271 21.0146 33.7065 21.0146 33.6855C21.0145 33.6645 21.0093 33.6438 20.9993 33.6257C20.9892 33.6075 20.9749 33.5925 20.9576 33.5821C20.9404 33.5717 20.9208 33.5664 20.901 33.5665C20.5913 33.5665 20.2817 33.4474 19.9439 33.4325C19.6148 33.4172 19.2929 33.3256 19.0009 33.1643C19.0303 33.1075 19.0539 33.0476 19.0712 32.9855C19.2776 33.0102 19.486 32.9642 19.6659 32.8542C19.8458 32.7443 19.9876 32.5762 20.0706 32.3747Z" fill="#442500"/>
<path opacity="0.2" d="M23.6738 29.9909C23.2356 29.8536 22.765 29.8907 22.3508 30.0952C21.9567 30.2442 21.1685 30.7359 21.2248 31.2871C21.2274 31.3574 21.2505 31.4252 21.2908 31.4812C21.331 31.5371 21.3866 31.5786 21.45 31.6C21.9215 31.5828 22.3773 31.4168 22.7589 31.1232C23.1519 30.8937 23.4817 30.56 23.716 30.1548C23.7236 30.1412 23.7284 30.1261 23.7304 30.1104C23.7323 30.0947 23.7313 30.0788 23.7274 30.0635C23.7234 30.0483 23.7167 30.034 23.7075 30.0215C23.6983 30.0091 23.6868 29.9987 23.6738 29.9909Z" fill="#442500"/>
<path opacity="0.2" d="M26.7845 32.5684C26.4172 32.5283 26.0461 32.5793 25.7007 32.7174C25.1799 32.9706 24.7014 33.3282 24.1384 33.0302C23.7459 32.812 23.2989 32.7292 22.8597 32.7933C22.4206 32.8574 22.0114 33.0653 21.6894 33.3878C21.6485 33.434 21.6195 33.4905 21.605 33.5519C21.5905 33.6133 21.591 33.6776 21.6065 33.7387C21.622 33.7998 21.6519 33.8558 21.6935 33.9013C21.7351 33.9467 21.787 33.9802 21.8442 33.9986C22.4766 34.0482 23.0983 34.1989 23.688 34.4456C24.1154 34.7017 24.6204 34.7711 25.0955 34.6392C26.1089 34.3711 26.883 33.8794 26.9252 32.7174C26.9221 32.679 26.9062 32.643 26.8805 32.6157C26.8547 32.5885 26.8207 32.5717 26.7845 32.5684Z" fill="#442500"/>
<path opacity="0.2" d="M29.7541 26.4153C29.7484 26.3909 29.7375 26.3682 29.7222 26.3489C29.7069 26.3297 29.6876 26.3144 29.6658 26.3044C29.644 26.2943 29.6204 26.2896 29.5966 26.2908C29.5729 26.292 29.5497 26.2989 29.5289 26.3111C28.5283 27.2019 27.6179 28.2005 26.8124 29.2907C26.165 29.9761 24.3212 31.1679 24.4056 32.2704C24.4081 32.3195 24.4241 32.3669 24.4516 32.4065C24.4791 32.4462 24.5169 32.4766 24.5605 32.4939C25.602 32.8812 27.2488 31.1679 27.9525 30.5124C29.0504 29.395 30.3875 27.9052 29.7541 26.4153Z" fill="#442500"/>
<path opacity="0.2" d="M29.5994 29.7228C29.0951 30.0141 28.6231 30.3638 28.1919 30.7657C27.9602 30.9565 27.7044 31.1119 27.4319 31.2275C27.1926 31.3169 26.9815 31.3169 26.7985 31.5106C26.7734 31.5369 26.7534 31.5682 26.7398 31.6028C26.7262 31.6373 26.7192 31.6743 26.7192 31.7117C26.7192 31.7491 26.7262 31.7862 26.7398 31.8207C26.7534 31.8552 26.7734 31.8865 26.7985 31.9128C27.0562 32.1558 27.3893 32.29 27.7345 32.29C28.0796 32.29 28.4127 32.1558 28.6704 31.9128C29.2912 31.4018 29.7081 30.6628 29.8387 29.842C29.8413 29.8115 29.8349 29.781 29.8206 29.7545C29.8062 29.728 29.7845 29.7068 29.7584 29.6938C29.7323 29.6808 29.703 29.6766 29.6746 29.6818C29.6461 29.6869 29.6199 29.7013 29.5994 29.7228Z" fill="#442500"/>
<path opacity="0.2" d="M33.3013 26.9219C32.8621 27.2213 32.3893 27.4616 31.8938 27.637C31.4434 27.8009 30.9508 27.7413 30.4863 27.8903C30.4543 27.8954 30.4243 27.9101 30.4 27.9328C30.3756 27.9554 30.3579 27.985 30.349 28.018C30.3401 28.0509 30.3404 28.0859 30.3497 28.1188C30.3591 28.1516 30.3772 28.1809 30.4019 28.2031C30.6611 28.4136 30.9656 28.5526 31.2882 28.6075C31.6107 28.6624 31.9411 28.6316 32.2495 28.5179C32.558 28.4041 32.835 28.2109 33.0554 27.9557C33.2759 27.7006 33.4329 27.3914 33.5124 27.056C33.4702 26.9666 33.3858 26.8623 33.3013 26.9219Z" fill="#442500"/>
<path opacity="0.2" d="M34.8493 12.4407C34.7487 12.0739 34.576 11.7337 34.3426 11.4425C34.1195 11.061 33.9444 10.6503 33.8218 10.2208C33.7374 9.96752 33.7514 8.90974 33.5403 8.73096C32.8929 8.41809 32.8788 10.0271 32.9069 10.3549C32.9973 10.9521 33.188 11.5273 33.4699 12.0533C33.4434 12.0327 33.4113 12.0216 33.3784 12.0216C33.3455 12.0216 33.3135 12.0327 33.287 12.0533C32.4988 12.7684 32.4284 14.1391 32.0343 15.1075C31.795 15.7034 31.3869 16.2099 31.1194 16.7612C31.0081 16.7069 30.8893 16.6717 30.7676 16.6569C30.2749 16.6569 30.3172 17.5359 30.2749 17.8637C30.0545 18.7341 29.8946 19.6204 29.7964 20.5156C29.7996 20.6099 29.8256 20.7018 29.8719 20.7825C29.9183 20.8632 29.9834 20.9299 30.0611 20.9762C30.1388 21.0226 30.2265 21.047 30.3157 21.0472C30.4049 21.0475 30.4926 21.0234 30.5705 20.9774C30.7769 20.8562 30.9511 20.682 31.0772 20.4709C31.0824 20.5268 31.1006 20.5805 31.13 20.6273C31.1595 20.6741 31.1993 20.7124 31.2461 20.7391C32.175 21.2456 32.9351 19.4578 33.1884 18.8172C33.4418 18.1765 33.7233 16.5079 32.8788 16.2099C33.0436 15.975 33.1896 15.7258 33.3151 15.465C33.6018 15.0415 33.796 14.5557 33.8837 14.043C33.9713 13.5302 33.9502 13.0033 33.8218 12.5002C33.9444 12.6492 34.1161 12.743 34.3019 12.7624C34.4877 12.7818 34.6734 12.7253 34.8211 12.6045C34.8426 12.5846 34.857 12.5575 34.8622 12.5278C34.8673 12.498 34.8627 12.4673 34.8493 12.4407ZM31.9639 17.4763C31.9301 17.8091 31.8689 18.1381 31.7809 18.4596C31.8029 18.1103 31.7549 17.76 31.6402 17.4316L31.978 17.2528C31.978 17.3422 31.9639 17.4763 31.9639 17.4763Z" fill="#442500"/>
<path opacity="0.2" d="M30.7818 22.3034C30.7673 22.2847 30.749 22.2696 30.7283 22.2592C30.7077 22.2489 30.6851 22.2435 30.6622 22.2435C30.6393 22.2435 30.6167 22.2489 30.596 22.2592C30.5753 22.2696 30.5571 22.2847 30.5425 22.3034C30.1062 22.6758 29.7121 23.1228 29.304 23.5251C28.8958 23.9273 28.2624 24.2104 27.8965 24.6722C27.8702 24.693 27.849 24.72 27.8343 24.7511C27.8196 24.7821 27.812 24.8163 27.812 24.851C27.812 24.8857 27.8196 24.9199 27.8343 24.951C27.849 24.982 27.8702 25.009 27.8965 25.0298C28.2668 25.1667 28.6653 25.1947 29.0496 25.1108C29.4338 25.0268 29.7892 24.8341 30.0781 24.553C30.6411 24.0614 31.2322 23.0632 30.7818 22.3034Z" fill="#442500"/>
<path opacity="0.2" d="M29.1911 21.3052C28.8956 21.1711 28.5718 21.5585 28.3748 21.7521C28.0064 22.1102 27.6212 22.4483 27.2207 22.7652C26.728 23.1377 25.2502 23.8826 25.5317 24.702C25.5391 24.7269 25.5517 24.7497 25.5684 24.769C25.5851 24.7882 25.6055 24.8033 25.6283 24.8132C25.6511 24.8231 25.6757 24.8277 25.7004 24.8265C25.725 24.8253 25.7491 24.8184 25.7709 24.8063L26.2636 24.553C26.6717 24.9702 27.7696 24.3296 28.1074 24.0018C28.3149 23.7952 28.4948 23.5596 28.6422 23.3016C29.2897 22.7503 30.1905 21.7223 29.1911 21.3052Z" fill="#442500"/>
<path opacity="0.2" d="M27.4883 21.5287C27.0896 20.9726 26.732 20.3849 26.4187 19.7707C26.0913 19.0371 25.8412 18.2677 25.6727 17.4763C25.6727 17.4763 25.6727 17.4763 25.6727 17.4763C25.4823 18.4646 25.5209 19.487 25.7853 20.456C25.9542 21.0072 26.7846 22.5269 27.4602 21.6777C27.4749 21.6565 27.4851 21.6322 27.49 21.6065C27.4948 21.5807 27.4943 21.5542 27.4883 21.5287Z" fill="#442500"/>
<path opacity="0.2" d="M9.96492 19.1896C9.96492 19.1896 9.96492 19.0853 9.88047 19.0704C9.37304 18.929 8.83967 18.929 8.33224 19.0704C7.75896 19.0639 7.19637 19.2347 6.71362 19.5621C6.71362 19.5621 6.71362 19.5621 6.71362 19.5621C7.15957 19.7994 7.63266 19.9747 8.12111 20.0835C7.8639 20.7117 7.79036 21.4071 7.90999 22.0799C7.98521 22.4227 8.14002 22.7401 8.36039 23.0036C8.57151 23.2569 8.85301 23.1824 9.10635 23.3016C9.12157 23.3115 9.1388 23.3175 9.15662 23.319C9.17445 23.3205 9.19236 23.3175 9.20886 23.3102C9.22537 23.3029 9.24 23.2916 9.25155 23.2771C9.26309 23.2627 9.27122 23.2455 9.27525 23.2271C9.27525 23.0334 9.416 22.8695 9.43008 22.6758C9.45902 22.3905 9.39975 22.103 9.26118 21.8564C9.0748 21.308 8.95192 20.7377 8.89523 20.158C9.02581 20.1702 9.15737 20.1547 9.28222 20.1124C9.40707 20.0701 9.52269 20.0019 9.62231 19.9117C9.72193 19.8215 9.80354 19.7112 9.86237 19.5872C9.9212 19.4632 9.95607 19.3281 9.96492 19.1896Z" fill="#442500"/>
<path opacity="0.2" d="M11.4148 26.1323C11.0921 25.9169 10.7104 25.8225 10.331 25.8641C10.0611 25.8622 9.79493 25.797 9.5516 25.6734C9.30826 25.5498 9.09378 25.3707 8.92353 25.149C8.54168 24.5955 8.23382 23.9889 8.00866 23.3463C7.87874 23.1408 7.76121 22.9268 7.65679 22.7056C7.45974 22.6162 7.43159 23.0036 7.41751 23.1079C7.41428 23.9741 7.6597 24.821 8.12126 25.5363C8.75463 26.6239 10.6688 27.7413 11.5133 26.3408C11.5222 26.3205 11.5267 26.2983 11.5264 26.2759C11.5261 26.2535 11.521 26.2314 11.5116 26.2114C11.5021 26.1913 11.4885 26.1738 11.4717 26.1601C11.455 26.1464 11.4355 26.1369 11.4148 26.1323Z" fill="#442500"/>
<path opacity="0.2" d="M11.654 13.856C11.3392 13.9424 11.0291 14.0468 10.7251 14.1689C10.6604 14.2242 10.5844 14.2629 10.5031 14.2817C10.4219 14.3005 10.3376 14.299 10.257 14.2773C10.1763 14.2556 10.1016 14.2143 10.0387 14.1567C9.97583 14.0991 9.9265 14.0267 9.89465 13.9454C9.73983 13.7219 9.4724 13.2005 9.14868 13.3643C9.14868 13.3643 9.14868 14.0497 9.21906 14.0944C9.28221 14.4786 9.47165 14.8269 9.7539 15.0777C9.94463 15.2278 10.1718 15.3175 10.4088 15.3361C10.6459 15.3547 10.8831 15.3015 11.0926 15.1828C11.3022 15.0641 11.4756 14.8847 11.5924 14.6656C11.7093 14.4464 11.7648 14.1967 11.7525 13.9454C11.7468 13.9215 11.7343 13.9002 11.7167 13.8842C11.699 13.8681 11.6771 13.8583 11.654 13.856Z" fill="#442500"/>
<path opacity="0.2" d="M4.12394 16.195C3.72997 16.3978 3.29498 16.495 2.8572 16.4781C2.64608 16.4781 2.51941 15.9567 2.43496 15.7779C2.35051 15.5991 2.36458 15.5991 2.32236 15.5246C2.5524 15.0684 2.62696 14.5423 2.53348 14.0348C2.53348 13.856 2.29421 13.8709 2.20976 14.0348C2.12531 14.1987 1.82974 14.3923 1.67491 14.6158C1.47076 14.9429 1.28284 15.2811 1.11192 15.6289C0.957093 15.8971 0.436322 17.1187 0 16.9847C0.380022 17.7147 1.21044 16.9847 1.57639 16.5675L1.75936 16.3589C1.79684 16.5869 1.8772 16.8046 1.99567 16.9991C2.11414 17.1936 2.26831 17.361 2.44903 17.4912C2.62556 17.6106 2.83068 17.6741 3.04018 17.6741C3.24967 17.6741 3.45479 17.6106 3.63132 17.4912C3.94367 17.1885 4.1641 16.7944 4.26469 16.3589C4.26947 16.3377 4.26928 16.3156 4.26414 16.2944C4.25901 16.2733 4.24907 16.2538 4.2352 16.2376C4.22133 16.2215 4.20395 16.2092 4.18456 16.2018C4.16517 16.1943 4.14436 16.192 4.12394 16.195Z" fill="#442500"/>
<path opacity="0.2" d="M14.6943 8.67137C14.2017 8.80545 13.7513 9.04383 13.2868 9.14811C13.1179 9.14811 12.5408 9.2673 12.4282 9.14811H12.3016C12.2735 9.16697 12.2508 9.19358 12.2359 9.22508C12.221 9.25658 12.2145 9.29178 12.2171 9.32689C12.2171 9.87813 12.8646 10.1761 13.3009 10.2953C12.8927 10.8912 12.569 11.5766 12.9631 12.1427C13.1769 12.0534 13.3727 11.9219 13.5402 11.7553C13.7557 11.5391 13.9492 11.2994 14.1172 11.0402C14.2714 10.807 14.3637 10.5343 14.3847 10.2506C14.9525 10.1468 15.4585 9.80935 15.7921 9.312C16.1018 8.71606 15.018 8.53728 14.6943 8.67137Z" fill="#442500"/>
<path opacity="0.2" d="M17.2133 2.8163C16.6742 2.64653 16.0937 2.7053 15.5947 2.98018C15.2569 3.11427 14.9473 3.29305 14.6095 3.42713C14.2717 3.56122 14.2435 3.51652 14.0746 3.59102C13.9057 3.66551 14.0746 3.59102 14.0746 3.48673C14.0746 3.38244 14.0746 3.48673 14.0746 3.48673C14.0095 3.56248 13.9484 3.64207 13.8917 3.7251C13.865 3.75544 13.8501 3.79537 13.8501 3.83684C13.8501 3.87831 13.865 3.91824 13.8917 3.94858C14.1169 4.52961 14.9754 4.39553 15.4399 4.27634C16.1752 4.08979 16.8385 3.66851 17.34 3.06957C17.3621 3.04715 17.3767 3.01772 17.3816 2.98573C17.3864 2.95375 17.3813 2.92095 17.367 2.89232C17.3527 2.86369 17.3299 2.84077 17.3022 2.82706C17.2745 2.81334 17.2433 2.80956 17.2133 2.8163Z" fill="#442500"/>
<path opacity="0.2" d="M24.7716 5.55759C24.2081 5.61013 23.6613 5.78781 23.167 6.07903C22.5954 6.30906 22.0629 6.63614 21.5906 7.04742C21.5422 7.10479 21.5154 7.17904 21.5154 7.256C21.5154 7.33296 21.5422 7.40722 21.5906 7.46458C22.1255 8.00092 23.0685 7.70295 23.6597 7.46458C24.0012 7.33532 24.3006 7.10531 24.5225 6.80171C24.7445 6.49811 24.8798 6.13361 24.9123 5.75127C24.9123 5.55759 24.8419 5.55759 24.7716 5.55759Z" fill="#442500"/>
<path opacity="0.2" d="M23.1251 3.57611C22.8577 3.08446 21.8725 3.57611 21.5769 3.73999C20.9347 4.19338 20.4194 4.82115 20.085 5.55759C20.7636 5.50553 21.4203 5.28063 21.9991 4.90206C22.3651 4.72328 23.4489 4.15715 23.1251 3.57611Z" fill="#442500"/>
<path opacity="0.2" d="M31.823 8.3138C31.823 7.94134 31.5274 7.77746 31.2741 7.52418C31.0048 7.21099 30.7774 6.86007 30.5985 6.4813C30.4718 6.24292 30.3733 5.95985 30.2466 5.67678C30.1199 5.39371 30.2466 4.78288 30.2466 4.32103C30.2466 4.32103 30.2466 4.32103 30.1622 4.32103C30.0196 4.52068 29.9057 4.74158 29.8244 4.97656L29.5992 4.76798C29.5992 4.76798 29.5992 4.76798 29.5288 4.76798C29.5268 5.07402 29.5599 5.37918 29.6273 5.67678C29.5848 5.97306 29.5848 6.27441 29.6273 6.57069C29.5454 6.55152 29.4597 6.56531 29.3868 6.60937C29.314 6.65343 29.2592 6.72462 29.2332 6.80906C29.2249 6.84326 29.2249 6.87915 29.2332 6.91335C28.9512 6.65511 28.6964 6.3654 28.4732 6.04924C27.9243 5.24473 27.305 4.55941 26.7842 3.6804C26.5619 3.2793 26.2762 2.92152 25.9397 2.62262C25.63 2.36934 24.7152 2.13097 24.7433 1.62442C24.7715 1.11788 24.0818 0.849709 23.7159 1.17747C23.0121 1.80321 21.4357 0.849709 20.9009 0.358063C21.0503 1.01176 21.4169 1.58672 21.9338 1.97789C22.4506 2.36906 23.0832 2.55032 23.7159 2.48853C23.8469 2.76745 24.0462 3.0041 24.2929 3.17386C24.6884 3.42221 25.0525 3.72257 25.3767 4.06776C25.1574 4.15004 24.9312 4.2099 24.7011 4.24654C24.3934 4.25685 24.0871 4.29674 23.7862 4.36573C23.7428 4.38176 23.7031 4.40741 23.6698 4.44096C23.6364 4.47451 23.6102 4.5152 23.5929 4.56031C23.5756 4.60542 23.5676 4.65392 23.5693 4.70257C23.5711 4.75123 23.5827 4.79892 23.6033 4.84247C23.9129 5.5427 24.7856 5.60229 25.433 5.46821C25.6892 5.422 25.9365 5.3314 26.1649 5.20004L26.4323 5.61719C26.8546 6.28762 27.1642 7.00274 27.6005 7.64337C27.1933 7.76572 26.7937 7.915 26.4042 8.09032C25.8241 8.27228 25.2869 8.58199 24.8278 8.99912C24.7904 9.03668 24.7629 9.08394 24.7481 9.13621C24.7333 9.18848 24.7316 9.24394 24.7433 9.29709V9.40138C24.7788 9.44097 24.8235 9.47005 24.8728 9.48573C24.9222 9.50141 24.9746 9.50315 25.0248 9.49077C26.0937 9.33661 27.0966 8.855 27.9102 8.10522L28.1494 8.3138C28.1536 8.8329 28.2742 9.34352 28.5013 9.80364C28.6646 10.2769 28.9131 10.712 29.2332 11.0849C29.3392 11.2089 29.4754 11.2995 29.6269 11.3468C29.7783 11.3941 29.9392 11.3963 30.0918 11.3531C30.1315 11.3406 30.1665 11.3151 30.1918 11.2803C30.217 11.2456 30.2313 11.2032 30.2325 11.1594V11.0551C30.2325 10.8018 30.2325 11.1892 30.2325 11.0551C30.2512 10.8634 30.2117 10.6703 30.1199 10.5039C29.9046 10.1224 29.6497 9.76757 29.3599 9.44607L28.825 8.65646C28.9862 8.70489 29.1564 8.70839 29.3191 8.66662C29.4819 8.62485 29.6317 8.53923 29.754 8.41809C29.9066 8.26932 30.006 8.06934 30.0355 7.85195C30.317 8.47768 30.8518 9.163 31.5133 8.90973C31.572 8.89451 31.627 8.86657 31.675 8.82767C31.7229 8.78876 31.7627 8.73975 31.7918 8.68373C31.8209 8.62772 31.8387 8.56591 31.8441 8.50223C31.8494 8.43855 31.8423 8.37439 31.823 8.3138Z" fill="#442500"/>
<path opacity="0.2" d="M30.6408 13.7219C30.4369 13.5784 30.2067 13.482 29.9652 13.4388C29.8323 13.4254 29.7036 13.3826 29.5872 13.3133C29.4709 13.2441 29.3695 13.1498 29.2896 13.0366C28.9085 12.5005 28.6137 11.9015 28.417 11.2637C27.8821 11.7851 28.417 13.1409 28.7548 13.6772C28.8334 13.8688 28.9492 14.0408 29.0947 14.182C29.2402 14.3231 29.4121 14.4303 29.5993 14.4966C29.8054 14.5551 30.0243 14.5367 30.2191 14.4444C30.4139 14.3522 30.5728 14.1917 30.669 13.9901C30.6918 13.9753 30.7102 13.954 30.7219 13.9285C30.7337 13.9031 30.7384 13.8747 30.7354 13.8465C30.7325 13.8184 30.722 13.7917 30.7053 13.7696C30.6885 13.7476 30.6661 13.731 30.6408 13.7219Z" fill="#442500"/>
<path opacity="0.2" d="M24.6309 24.0316C24.1524 22.9887 22.7308 23.6144 22.013 24.0316C20.9786 24.5487 20.1119 25.3781 19.5217 26.4153C19.5217 26.4153 19.5217 26.4153 19.5217 26.4153C20.2958 26.6388 21.0981 25.8045 21.7456 25.432C22.2666 25.1499 22.8137 24.9252 23.3782 24.7616C23.832 24.7068 24.2567 24.4977 24.5887 24.1657C24.604 24.1475 24.6156 24.1263 24.6229 24.1032C24.6301 24.0802 24.6329 24.0558 24.6309 24.0316Z" fill="#442500"/>
<path opacity="0.2" d="M20.8308 23.4356C20.3861 23.3907 19.9384 23.3907 19.4937 23.4356C19.0613 23.4522 18.6291 23.3969 18.2129 23.2718C18.2129 23.1973 18.6351 23.1079 18.5647 23.1228C18.4944 23.1377 18.6773 23.1228 18.5647 23.1228C18.2692 22.9738 17.8892 22.6907 17.664 23.1228L17.9595 23.4505C17.6011 23.7096 17.2299 23.9483 16.8476 24.1657C16.4535 24.3593 15.7498 24.1657 15.5105 24.6275C15.6922 24.7868 15.8851 24.9313 16.0876 25.0596C16.4593 25.233 16.8739 25.2748 17.2699 25.1788C17.8645 25.0563 18.3956 24.7063 18.7618 24.1955C18.9107 24.3169 19.0711 24.4218 19.2403 24.5083C19.8737 24.8212 20.8871 24.7169 20.9575 23.823C20.9745 23.7524 20.9715 23.6781 20.949 23.6092C20.9265 23.5404 20.8854 23.48 20.8308 23.4356Z" fill="#442500"/>
<path opacity="0.2" d="M19.944 24.9255C19.9422 24.904 19.9364 24.883 19.927 24.8638C19.9175 24.8446 19.9046 24.8276 19.8889 24.8138C19.8732 24.7999 19.855 24.7895 19.8355 24.7831C19.816 24.7767 19.7954 24.7745 19.7751 24.7765C19.2626 24.888 18.7811 25.1225 18.3676 25.4618C18.1222 25.62 17.8568 25.7404 17.5794 25.8194C17.3261 25.9088 17.1009 25.8194 16.8757 26.0429C16.8323 26.0721 16.7955 26.111 16.7678 26.1569C16.7402 26.2028 16.7224 26.2546 16.7157 26.3086C16.7089 26.3625 16.7135 26.4174 16.729 26.4693C16.7445 26.5212 16.7705 26.5689 16.8053 26.609C17.0712 26.8416 17.3964 26.9856 17.7396 27.0227C18.0828 27.0598 18.4287 26.9885 18.7336 26.8176C19.0895 26.6643 19.3945 26.4028 19.61 26.066C19.8254 25.7291 19.9417 25.3323 19.944 24.9255Z" fill="#442500"/>
<path opacity="0.5" d="M12.8082 6.5111C12.7685 6.3553 12.6723 6.22243 12.5404 6.14148C12.4086 6.06053 12.2518 6.03809 12.1044 6.07905C11.8002 6.13436 11.4994 6.20898 11.2036 6.30252C11.1675 6.17551 11.1078 6.05739 11.0281 5.95506C10.9483 5.85274 10.8501 5.76827 10.7391 5.70659C7.92417 4.06777 5.82701 9.2524 4.96844 11.219C3.95732 13.6232 3.3432 16.1932 3.15278 18.8172C2.98388 20.7093 2.8572 23.0483 4.27877 24.4785C4.54401 24.7484 4.87125 24.9401 5.22806 25.0348C5.58487 25.1295 5.95887 25.1239 6.313 25.0186C6.66713 24.9132 6.98911 24.7117 7.24702 24.434C7.50494 24.1564 7.68984 23.8122 7.78342 23.4357C8.31826 20.3219 8.40271 17.1485 9.9228 14.3476C10.6125 13.0813 11.5133 11.9639 12.2592 10.7422C12.6098 10.1101 12.8388 9.41088 12.933 8.68472C13.0272 7.95855 12.9848 7.21983 12.8082 6.5111Z" fill="#FFFAD9"/>
<path opacity="0.5" d="M30.6411 17.3422C30.7086 15.6721 30.4049 14.0085 29.7544 12.4853C29.5719 11.7889 29.3317 11.1109 29.0366 10.4592C28.3188 8.83523 26.5172 7.2262 24.8141 7.61356C24.5578 7.56935 24.2964 7.56935 24.04 7.61356C23.9443 7.62829 23.853 7.66604 23.7732 7.72392C23.6933 7.78179 23.6271 7.85826 23.5795 7.94744C23.532 8.03662 23.5043 8.13616 23.4988 8.2384C23.4932 8.34064 23.5098 8.44288 23.5474 8.53726C23.5474 8.83523 23.5474 9.17789 23.6881 8.70114C23.625 9.05057 23.625 9.4095 23.6881 9.75893C23.7286 10.6491 23.8947 11.5279 24.1808 12.3661C24.7515 13.8307 25.1121 15.3774 25.2504 16.9548C25.3897 18.6566 25.1386 20.3688 24.5185 21.9458C23.7304 23.8975 22.168 25.2979 21.5628 27.339C20.9576 29.3801 22.8718 31.3914 24.6734 30.6316C27.052 29.6334 28.1076 27.5029 28.8958 25.0894C29.2055 24.2104 29.4729 23.3462 29.7263 22.4672C29.9016 21.8861 30.0426 21.294 30.1485 20.6943C30.3954 19.5923 30.5601 18.4715 30.6411 17.3422Z" fill="#FFFAD9"/>
<path d="M8.48703 8.70117C8.48322 8.66379 8.46922 8.62839 8.44672 8.59929C8.42423 8.57019 8.39422 8.54865 8.36035 8.53729C7.92403 8.53729 7.72698 9.20772 7.58623 9.55038C7.3402 10.2646 7.14265 10.9965 6.99509 11.7404C6.96995 11.8216 6.96203 11.9076 6.97188 11.9924C6.98173 12.0772 7.00911 12.1586 7.05208 12.2309C7.09505 12.3032 7.15254 12.3645 7.22047 12.4106C7.2884 12.4567 7.36509 12.4864 7.44509 12.4975C7.52508 12.5087 7.60641 12.501 7.68329 12.4751C7.76017 12.4492 7.83071 12.4056 7.88988 12.3476C7.94905 12.2895 7.9954 12.2183 8.02563 12.1392C8.05586 12.06 8.06923 11.9747 8.06478 11.8894C8.12786 11.2875 8.22657 10.6904 8.36035 10.1016C8.50199 9.65093 8.5453 9.17213 8.48703 8.70117Z" fill="#FFFAD9"/>
<path d="M14.3284 24.9255C14.3079 24.853 14.2723 24.7864 14.2243 24.7304C14.1763 24.6744 14.117 24.6306 14.0509 24.602C13.9847 24.5734 13.9134 24.5609 13.8421 24.5653C13.7708 24.5697 13.7013 24.591 13.6388 24.6275C13.0515 25.2415 12.5746 25.9634 12.2313 26.758C12.1572 26.8924 12.0914 27.0318 12.0342 27.1751C11.339 27.0623 10.6278 27.1551 9.97929 27.4433C9.0212 27.7339 8.08106 28.0872 7.16431 28.5011C7.83714 28.8673 8.61408 28.9575 9.34591 28.7544C9.99336 28.665 10.6127 28.4862 11.246 28.4117L11.7386 28.3372C11.7386 28.5458 11.8512 28.7395 11.8794 28.9778C12.1046 28.7544 12.4565 28.6799 12.6676 28.4415C12.9936 28.0691 13.2858 27.6651 13.5402 27.2347C13.8126 26.9265 14.0229 26.5628 14.1584 26.1658C14.2939 25.7688 14.3518 25.3468 14.3284 24.9255Z" fill="#FFFAD9"/>
<path d="M20.0145 28.9481C19.8149 27.9102 19.4785 26.9072 19.0152 25.9684C19.0152 25.9684 18.9167 25.9684 18.9167 25.9684C18.8181 26.8941 18.8181 27.8286 18.9167 28.7544C18.9871 29.5738 18.9167 30.8699 19.5501 31.451C19.5917 31.4959 19.6426 31.5299 19.6989 31.5502C19.7551 31.5705 19.8151 31.5765 19.874 31.5678C19.9328 31.5591 19.9889 31.5359 20.0378 31.5001C20.0866 31.4643 20.1269 31.4169 20.1553 31.3616C20.5775 30.5869 20.1834 29.7377 20.0145 28.9481Z" fill="#FFFAD9"/>
<path d="M16.5096 28.9629C16.4972 28.9071 16.4712 28.8558 16.4341 28.8139C16.3971 28.7721 16.3503 28.7413 16.2985 28.7246C15.4821 28.5905 14.891 29.7675 14.5673 30.3783C14.2704 30.7525 14.0651 31.1983 13.9694 31.6764C13.8737 32.1544 13.8905 32.6501 14.0184 33.1196C14.0249 33.1288 14.0334 33.1364 14.0432 33.1415C14.053 33.1467 14.0637 33.1494 14.0747 33.1494C14.0856 33.1494 14.0964 33.1467 14.1061 33.1415C14.1159 33.1364 14.1244 33.1288 14.131 33.1196C14.6495 32.437 15.1199 31.7149 15.5384 30.9593C15.8762 30.4528 16.763 29.6632 16.5096 28.9629Z" fill="#FFFAD9"/>
<path d="M30.5143 25.7747C30.4921 25.6851 30.4479 25.6034 30.386 25.538C30.3242 25.4725 30.247 25.4257 30.1624 25.4022C28.7549 25.0894 27.3474 25.879 25.9399 25.6257C26.317 25.9835 26.7681 26.2427 27.257 26.3824C27.7459 26.5222 28.259 26.5385 28.7549 26.4302C29.1772 26.4153 30.7958 26.758 30.5143 25.7747Z" fill="#FFFAD9"/>
<path d="M32.0483 15.465C32.6113 14.4221 33.5261 13.0366 33.2587 11.8C33.2416 11.734 33.2104 11.6731 33.1675 11.6219C33.1247 11.5707 33.0712 11.5306 33.0114 11.5047C32.9516 11.4787 32.8869 11.4677 32.8224 11.4724C32.7579 11.4772 32.6953 11.4975 32.6394 11.5319C32.5071 11.6441 32.3846 11.7688 32.2735 11.9043C32.2876 11.866 32.2876 11.8235 32.2735 11.7851C31.8512 11.2637 31.1616 11.4872 30.5986 11.5766C29.7559 11.8398 28.8864 11.9948 28.0088 12.0384C28.0088 12.0384 28.0088 12.0384 28.0088 12.1278C28.666 12.5256 29.422 12.7023 30.1763 12.6343C30.8223 12.665 31.4666 12.5429 32.0624 12.2768C31.644 13.0769 31.2818 13.9085 30.9786 14.7648C30.376 15.8716 29.9795 17.0905 29.8104 18.3553L29.3881 17.7147L28.9237 17.0294C28.6985 16.7612 28.4029 16.5377 28.2058 16.2547C28.2437 16.8327 28.3672 17.4008 28.5718 17.9382C28.8487 18.6959 29.1928 19.4242 29.5993 20.1133C29.9933 20.6646 30.8801 20.1133 30.5 19.5621C30.303 19.2492 30.1059 18.9364 29.8948 18.6384C30.7619 17.7035 31.4881 16.6333 32.0483 15.465Z" fill="#FFFAD9"/>
<path d="M28.0654 6.21314C28.0832 5.57063 27.9926 4.92991 27.798 4.32104C27.798 4.32104 27.798 4.32104 27.798 4.32104C27.7921 4.97682 27.7261 5.63045 27.6009 6.27273C26.9318 6.58141 26.2989 6.97138 25.7149 7.43481C24.8986 8.00094 24.3074 8.92464 23.5474 9.44609C23.5474 9.44609 23.5474 9.56527 23.5474 9.53548C24.3215 9.17792 25.166 9.01403 25.9401 8.61178C26.4327 8.35851 26.9676 8.09033 27.4602 7.79237C27.4845 8.05091 27.5511 8.30299 27.6572 8.53729C27.8121 8.87995 28.2624 8.68627 28.2765 8.35851C28.3042 7.9916 28.3042 7.62294 28.2765 7.25603C28.2765 7.25603 28.2765 7.25603 28.2765 7.16664C28.6565 6.86867 28.0654 6.37702 28.0654 6.21314Z" fill="#FFFAD9"/>
<path d="M23.1675 2.7567C22.5482 2.35445 21.76 2.7567 21.2533 3.18876C21.0679 2.89413 20.8343 2.63683 20.5636 2.42894C20.5434 2.41943 20.5214 2.41509 20.4993 2.41626C20.4773 2.41744 20.4558 2.4241 20.4366 2.43571C20.4174 2.44731 20.4011 2.46354 20.3889 2.48307C20.3767 2.5026 20.3691 2.52489 20.3666 2.54813C20.4019 2.9632 20.4968 3.37014 20.6481 3.7549C20.3567 4.0879 20.1914 4.52277 20.1836 4.97656C20.1848 5.00116 20.1913 5.02514 20.2025 5.04674C20.2136 5.06833 20.2293 5.08698 20.2482 5.1013C20.2671 5.11561 20.2889 5.12523 20.3118 5.12943C20.3347 5.13362 20.3583 5.1323 20.3806 5.12555C20.6052 5.09388 20.821 5.01267 21.014 4.88717C21.0986 5.1892 21.2069 5.48322 21.3377 5.76618C21.6052 6.37701 22.5482 5.94496 22.3511 5.31923C22.2406 4.96589 22.0943 4.62622 21.9148 4.30614C22.0887 4.18915 22.2725 4.08941 22.4637 4.00817C22.7611 3.92933 23.0362 3.77605 23.266 3.56122C23.3167 3.50497 23.355 3.43741 23.3779 3.3635C23.4007 3.28958 23.4077 3.21119 23.3983 3.13405C23.3888 3.05691 23.3632 2.98299 23.3233 2.9177C23.2833 2.85241 23.2301 2.7974 23.1675 2.7567Z" fill="#FFFAD9"/>
<path d="M16.0311 3.60591C15.646 4.41015 15.3258 5.24745 15.074 6.10884C14.7644 6.89309 14.5241 7.70605 14.3562 8.53727C14.3562 8.53727 14.3562 8.53727 14.3562 8.53727C15.0401 7.93928 15.6006 7.19892 16.003 6.36211C16.4846 5.61679 16.802 4.76655 16.9319 3.87408C16.9144 3.77254 16.8703 3.67824 16.8047 3.60192C16.739 3.5256 16.6545 3.47032 16.5606 3.44237C16.4667 3.41443 16.3673 3.41494 16.2737 3.44385C16.1801 3.47276 16.0961 3.52891 16.0311 3.60591Z" fill="#FFFAD9"/>
<path d="M11.6117 3.6506C11.162 3.10833 10.6674 2.60973 10.1338 2.16077C10.1338 2.16077 10.1338 2.16077 10.1338 2.16077C10.1865 2.87215 10.4642 3.54398 10.922 4.06776C11.302 4.55941 11.7665 5.34902 12.4421 5.25963C12.4421 5.25963 12.5547 5.25963 12.5547 5.14044C12.7095 4.49981 12.0198 4.06776 11.6117 3.6506Z" fill="#FFFAD9"/>
<path d="M26.2358 10.1016C25.4164 10.0215 24.5922 10.1867 23.8572 10.5784C23.4979 10.7143 23.1708 10.9312 22.8986 11.2142C22.6264 11.4972 22.4156 11.8394 22.2808 12.2172C22.2808 12.2172 22.2808 12.3215 22.3652 12.2172C22.9411 11.7745 23.6058 11.4788 24.3075 11.3531C24.9949 11.2299 25.669 11.0352 26.3203 10.7721C26.3687 10.7285 26.406 10.6727 26.4288 10.6099C26.4516 10.547 26.4592 10.4792 26.4507 10.4125C26.4423 10.3458 26.4183 10.2823 26.3807 10.228C26.3432 10.1737 26.2933 10.1303 26.2358 10.1016Z" fill="#FFFAD9"/>
<path d="M27.2068 19.0555C26.9139 18.1921 26.4644 17.3976 25.8838 16.7165C25.8838 16.7165 25.7853 16.7165 25.7712 16.7165C25.7543 17.5404 25.8882 18.3599 26.1653 19.13C26.3764 19.86 26.4749 20.9178 27.0661 21.3946C27.1181 21.4494 27.1828 21.4889 27.2536 21.5092C27.3245 21.5295 27.3991 21.5299 27.4702 21.5103C27.5412 21.4908 27.6062 21.452 27.6588 21.3977C27.7113 21.3434 27.7496 21.2756 27.7698 21.2009C27.8077 20.44 27.61 19.6868 27.2068 19.0555Z" fill="#FFFAD9"/>
<path d="M22.2805 24.4786C21.7945 25.0848 21.4519 25.8049 21.2812 26.5792C21.0028 27.4096 20.9019 28.2949 20.9856 29.1715C21.07 29.5887 21.5908 29.5738 21.7879 29.2758C22.108 28.5712 22.2533 27.7918 22.2101 27.0113C22.2101 26.1919 22.3086 25.3576 22.379 24.5232C22.3931 24.4637 22.3227 24.4488 22.2805 24.4786Z" fill="#FFFAD9"/>
<path d="M26.883 32.7769C26.4326 32.4045 25.8977 32.5386 25.3488 32.5088C24.5951 32.4342 23.8365 32.4342 23.0828 32.5088C23.7714 32.8362 24.4943 33.0763 25.2362 33.2239C25.7851 33.3133 26.4889 33.4325 26.883 32.9408C26.8934 32.9149 26.8988 32.8871 26.8988 32.8589C26.8988 32.8307 26.8934 32.8029 26.883 32.7769Z" fill="#FFFAD9"/>
<path d="M3.09619 21.0817C3.05693 20.9375 2.96521 20.8157 2.84117 20.7431C2.71713 20.6705 2.57092 20.6529 2.43467 20.6943C1.73093 20.9327 1.44943 21.9756 1.13978 22.6162L0.562713 23.8975C0.365664 24.3445 0.351589 24.8957 0.154541 25.2979C0.154541 25.2979 0.154541 25.3873 0.154541 25.3724C0.51379 25.1963 0.857619 24.9869 1.18201 24.7467C1.54847 24.3546 1.86545 23.9139 2.12503 23.4356C2.50505 22.8844 3.26509 21.8564 3.09619 21.0817Z" fill="#FFFAD9"/>
<path d="M11.3022 19.1002C11.063 18.3851 10.2888 18.0573 9.68361 17.7594C8.83373 17.4997 8.04973 17.0415 7.3894 16.4185C7.3894 16.4185 7.3894 16.4185 7.3894 16.4185C7.68039 17.1651 8.1692 17.8067 8.79689 18.2659C9.10654 18.5192 9.44434 18.7278 9.78214 18.9512C10.1087 19.2329 10.4806 19.4499 10.88 19.5919C11.063 19.6962 11.4148 19.4429 11.3022 19.1002Z" fill="#FFFAD9"/>
<path d="M11.865 8.53727C10.9753 7.73408 10.1426 6.86265 9.37378 5.93005C9.37378 5.93005 9.37378 5.93005 9.37378 5.93005C10.1197 7.41989 10.7813 9.2077 12.3295 10.0271C12.3895 10.0546 12.4542 10.0687 12.5195 10.0687C12.5849 10.0687 12.6495 10.0546 12.7095 10.0271C13.3992 9.55036 12.1888 8.79054 11.865 8.53727Z" fill="#FFFAD9"/>
<path d="M9.35974 3.97836C8.86712 3.39732 7.95225 4.4998 7.71298 4.82757C7.20424 5.4315 6.81215 6.13502 6.55884 6.89844C7.14046 6.31455 7.78814 5.80913 8.4871 5.39371C8.92342 5.14043 9.89459 4.5445 9.35974 3.97836Z" fill="#FFFAD9"/>
<path d="M11.3022 10.623C10.6265 11.6102 10.1695 12.7457 9.96509 13.9454C9.96969 14.0629 10.0128 14.175 10.0869 14.2626C10.1611 14.3501 10.2617 14.4076 10.3715 14.4252C10.4814 14.4429 10.5936 14.4195 10.6889 14.3591C10.7842 14.2987 10.8568 14.2051 10.894 14.0944C11.1635 12.9592 11.3006 11.7935 11.3022 10.623C11.3022 10.623 11.3022 10.5932 11.3022 10.623Z" fill="#FFFAD9"/>
<path d="M7.22035 5.5576C6.16473 5.5576 4.19424 6.07905 3.80015 7.27092C3.79168 7.30555 3.79069 7.34176 3.79724 7.37685C3.8038 7.41195 3.81773 7.44503 3.83801 7.47365C3.85829 7.50227 3.88439 7.52569 3.91438 7.54217C3.94438 7.55866 3.97749 7.56779 4.01127 7.56889C4.52325 7.5563 5.02879 7.44524 5.50321 7.24112C6.1225 7.06234 6.75587 6.98785 7.37517 6.82397C7.5237 6.79029 7.65484 6.69872 7.74254 6.56745C7.83025 6.43617 7.86812 6.27478 7.84862 6.11533C7.82913 5.95587 7.7537 5.81 7.63731 5.70668C7.52092 5.60336 7.37208 5.55015 7.22035 5.5576Z" fill="#FFEF5A"/>
<path d="M14.2579 1.68402C13.9673 2.03197 13.6993 2.4003 13.4556 2.7865C13.1829 3.10212 12.929 3.4355 12.6956 3.78469C12.6862 3.7944 12.6788 3.80599 12.6737 3.81879C12.6686 3.83158 12.666 3.84531 12.666 3.85919C12.666 3.87306 12.6686 3.8868 12.6737 3.89959C12.6788 3.91238 12.6862 3.92397 12.6956 3.93368C13.0897 4.24654 13.6105 3.93368 13.9764 3.74C14.4874 3.43895 14.937 3.03389 15.2994 2.54813C15.8061 1.8628 14.7927 1.08809 14.2579 1.68402Z" fill="#FFEF5A"/>
<path d="M21.3657 7.92645C21.1827 7.36031 20.6479 6.98785 20.296 6.526C19.9441 6.06415 19.733 5.46822 19.3108 5.21495C19.3042 5.2057 19.2957 5.19819 19.2859 5.19301C19.2762 5.18784 19.2654 5.18515 19.2545 5.18515C19.2435 5.18515 19.2328 5.18784 19.223 5.19301C19.2132 5.19819 19.2047 5.2057 19.1982 5.21495C18.9448 5.73639 19.3108 6.43661 19.5219 6.91336C19.7883 7.55111 20.2492 8.07574 20.8308 8.4032C20.8972 8.42307 20.9672 8.42543 21.0347 8.41005C21.1021 8.39467 21.165 8.36204 21.2177 8.31499C21.2705 8.26795 21.3116 8.20794 21.3374 8.14021C21.3632 8.07247 21.3729 7.99908 21.3657 7.92645Z" fill="#FFEF5A"/>
<path d="M27.277 8.19462C26.4888 8.3287 25.8695 9.68446 25.3909 10.2208C25.0954 10.6082 24.8279 11.0104 24.5324 11.3978C24.2722 11.8804 24.0373 12.3777 23.8286 12.8876C23.8286 12.8876 23.8286 12.8876 23.8286 12.8876C24.2459 12.7388 24.6433 12.5335 25.0109 12.2768C25.4411 11.9158 25.8329 11.5061 26.1791 11.0551C26.6999 10.4145 27.7414 9.56527 27.8118 8.64157C27.8822 8.3138 27.5444 8.14992 27.277 8.19462Z" fill="#FFEF5A"/>
<path d="M25.7428 5.78108C25.544 5.26103 25.2989 4.76218 25.0109 4.29124C24.7413 3.74278 24.4356 3.21507 24.096 2.71201C23.9694 2.57793 23.9694 2.57793 23.9694 2.71201C23.9522 3.94427 24.2964 5.15185 24.9546 6.16844C24.9918 6.23191 25.0419 6.28588 25.1011 6.32648C25.1604 6.36707 25.2274 6.3933 25.2973 6.40326C25.3673 6.41323 25.4384 6.4067 25.5057 6.38413C25.573 6.36156 25.6347 6.32352 25.6865 6.27273C25.7315 6.2011 25.76 6.11934 25.7697 6.03397C25.7795 5.9486 25.7703 5.862 25.7428 5.78108Z" fill="#FFEF5A"/>
<path d="M35.8347 9.29708C35.3111 8.79698 34.6987 8.4121 34.0332 8.16481C33.5282 7.91185 32.9556 7.85388 32.4146 8.00092C32.4146 8.00092 32.4146 8.00092 32.4146 8.07542C32.4146 8.14991 32.6116 8.35849 32.7383 8.47767C32.9844 8.7109 33.2534 8.91567 33.5405 9.08851C34.0895 9.46097 34.6102 9.89302 35.131 10.3102C35.6518 10.7273 36.3133 9.80363 35.8347 9.29708Z" fill="#FFEF5A"/>
<path d="M28.0934 18.0573C27.8401 17.2528 27.5023 16.4781 27.2208 15.7034C27.0605 15.0552 26.6986 14.4831 26.1933 14.0795C26.1761 14.069 26.1566 14.0635 26.1368 14.0635C26.1169 14.0636 26.0974 14.0692 26.0803 14.0797C26.0631 14.0903 26.0489 14.1055 26.0391 14.1238C26.0293 14.1421 26.0242 14.1628 26.0244 14.1838C26.0244 14.8691 26.2355 15.5395 26.3481 16.2248C26.4192 17.032 26.6392 17.8166 26.9956 18.5341C27.3475 19.13 28.3186 18.7576 28.0934 18.0573Z" fill="#FFEF5A"/>
<path d="M24.5044 22.4226C24.1244 22.4226 23.7866 22.661 23.4628 22.8397C22.9139 23.1228 22.365 23.3612 21.8161 23.6293C21.3466 23.8185 20.9199 24.1098 20.5635 24.4845C20.2071 24.8592 19.9289 25.3089 19.7471 25.8045C20.6898 25.112 21.7439 24.6071 22.8576 24.3147C23.4628 24.0763 24.7859 23.7485 24.8985 22.944C24.9085 22.8818 24.906 22.8181 24.891 22.7571C24.8761 22.696 24.8492 22.639 24.812 22.5897C24.7747 22.5405 24.7281 22.5001 24.6751 22.4713C24.6221 22.4425 24.5639 22.4259 24.5044 22.4226Z" fill="#FFEF5A"/>
<path d="M20.7183 22.512C20.1131 22.4077 19.536 22.2885 18.9449 22.1395C18.3895 22.0304 17.8399 21.8912 17.2981 21.7224C17.2981 21.7224 17.2981 21.7224 17.2981 21.8117C17.6736 22.2964 18.1203 22.7139 18.6211 23.0483C19.2358 23.4033 19.92 23.6022 20.6198 23.6293C21.1546 23.6293 21.3235 22.6163 20.7183 22.512Z" fill="#FFEF5A"/>
<path d="M16.2285 27.6817C16.147 27.4248 16.0144 27.1895 15.8396 26.9915C15.6647 26.7936 15.4518 26.6378 15.2151 26.5345C14.7756 26.3184 14.2908 26.226 13.8076 26.2663C14.2017 26.4153 14.4551 26.907 14.6803 27.2496C14.8581 27.6522 15.1293 28.0007 15.4685 28.2627C15.5553 28.3014 15.65 28.3157 15.7435 28.3044C15.8371 28.2931 15.9263 28.2565 16.0026 28.1982C16.079 28.1398 16.1398 28.0617 16.1794 27.9712C16.219 27.8808 16.2359 27.7811 16.2285 27.6817Z" fill="#FFEF5A"/>
<path d="M9.02199 23.4357C8.86863 23.0215 8.68997 22.6184 8.48714 22.2289C8.46751 22.1999 8.44232 22.1756 8.41322 22.1577C8.38411 22.1397 8.35175 22.1284 8.31824 22.1246C8.41677 22.1246 8.31824 22.1246 8.31824 22.1246C8.31824 22.1246 8.31824 22.1246 8.23379 22.1246C8.14934 22.1246 8.16342 22.214 8.23379 22.1991C8.20417 22.2093 8.17725 22.2267 8.15523 22.25C8.13321 22.2733 8.11672 22.3018 8.10712 22.3332C8.0307 22.8265 8.0307 23.3297 8.10712 23.823C8.10712 24.2998 8.10712 24.9851 8.68419 25.149C8.7898 25.1742 8.90016 25.165 9.00068 25.1224C9.10121 25.0798 9.18717 25.006 9.24719 24.9106C9.52868 24.419 9.16274 23.8081 9.02199 23.4357Z" fill="#FFEF5A"/>
<path d="M4.70085 25.8492C3.38612 25.6706 2.0902 25.3613 0.830258 24.9255C0.830258 24.9255 0.745808 24.9255 0.759883 24.9255C1.26658 26.4153 3.11039 26.6537 4.40528 26.8772C5.09495 27.0857 5.4046 26.0131 4.70085 25.8492Z" fill="#FFEF5A"/>
<path d="M1.97052 13.6474C1.79956 13.5479 1.599 13.5218 1.41036 13.5745C1.22171 13.6272 1.05944 13.7546 0.957128 13.9305C0.689795 14.3207 0.472114 14.7465 0.309683 15.1968C0.202867 15.453 0.113498 15.7168 0.0422603 15.9865C0.00707207 16.2134 0.00707207 16.4449 0.0422603 16.6718C0.0440267 16.6933 0.0498075 16.7143 0.0592695 16.7335C0.0687314 16.7527 0.081687 16.7697 0.097389 16.7835C0.113091 16.7974 0.131229 16.8078 0.150755 16.8142C0.170282 16.8206 0.190811 16.8228 0.211159 16.8208C0.666837 16.69 1.06508 16.3949 1.33715 15.9865C1.66087 15.5842 1.94237 15.1521 2.23794 14.735C2.33627 14.5526 2.36334 14.3368 2.31337 14.1336C2.26341 13.9304 2.14036 13.7559 1.97052 13.6474Z" fill="#FFEF5A"/>
<path d="M7.91015 15.5693C7.39656 15.3201 6.87028 15.1012 6.33376 14.9138C5.89751 14.6692 5.41844 14.5222 4.92627 14.4817C4.92627 15.5991 6.60118 16.4483 7.53013 16.5973C8.06497 16.7016 8.48722 15.8971 7.91015 15.5693Z" fill="#FFEF5A"/>
<path d="M29.9375 15.1373C28.6567 16.3738 28.53 18.7874 28.0093 20.4411C27.7981 21.1115 28.8115 21.4095 28.9945 20.739C29.5161 18.9208 29.8466 17.0472 29.9797 15.1522C29.9797 15.1522 29.9516 15.1224 29.9375 15.1373Z" fill="#FFEF5A"/>
<path d="M29.3461 25.0745C27.8448 25.4268 26.4685 26.2223 25.377 27.3688C25.377 27.3688 25.377 27.5327 25.4473 27.5029C26.1511 27.19 26.8548 26.9368 27.6008 26.6686C28.2912 26.467 28.9608 26.1925 29.5994 25.8492C29.8528 25.6406 29.7542 25.0298 29.3461 25.0745Z" fill="#FFEF5A"/>
<path d="M28.7408 27.1007C28.7408 26.9517 28.6 26.758 28.4311 26.7729C27.5022 26.907 26.9251 28.0393 26.3762 28.7544C25.5751 29.7324 24.8723 30.7959 24.2791 31.9277C24.2791 31.9277 24.2791 32.0022 24.2791 31.9277C25.3056 31.4437 26.2223 30.7325 26.9674 29.842C27.6148 29.2311 28.8252 28.1138 28.7408 27.1007Z" fill="#FFEF5A"/>
<path d="M11.2179 30.6763C11.2445 30.6886 11.2733 30.6949 11.3024 30.6949C11.3314 30.6949 11.3602 30.6886 11.3868 30.6763C11.4199 30.6316 11.4379 30.5766 11.4379 30.5198C11.4379 30.4631 11.4199 30.408 11.3868 30.3634C11.0349 29.544 9.61336 29.693 8.89554 29.5589C7.99136 29.1975 7.04384 28.9718 6.08057 28.8885C6.16502 29.8569 7.27693 30.2144 8.0229 30.4677C8.77373 30.7509 9.55306 30.9408 10.3453 31.0338C10.5845 31.3169 11.2742 31.8383 11.6542 31.6C12.0342 31.3616 11.429 30.6763 11.2179 30.6763Z" fill="#FFEF5A"/>
<path d="M33.5263 20.5901C32.907 20.4113 32.6537 21.5883 32.5411 21.9756C32.2262 22.8056 32.1816 23.723 32.4144 24.5828C32.4241 24.6015 32.4384 24.617 32.4557 24.6278C32.4731 24.6386 32.4928 24.6443 32.5129 24.6443C32.533 24.6443 32.5528 24.6386 32.5701 24.6278C32.5874 24.617 32.6017 24.6015 32.6114 24.5828C33.0618 24.121 34.596 20.9029 33.5263 20.5901Z" fill="#FFEF5A"/>
<path d="M10.5139 22.2885C10.5139 21.9309 10.4295 21.5585 10.3451 21.2158C10.3292 21.1595 10.2999 21.1084 10.26 21.0674C10.2201 21.0265 10.1709 20.9972 10.1172 20.9822C10.0635 20.9673 10.007 20.9672 9.95323 20.982C9.89947 20.9968 9.85021 21.026 9.8102 21.0668C9.16276 21.633 9.37388 23.1824 9.89465 23.7783C10.1902 24.121 10.6547 23.7783 10.6969 23.4208C10.6714 23.0379 10.6101 22.6586 10.5139 22.2885Z" fill="#FFEF5A"/>
<path d="M2.19562 19.2045C2.17057 18.3151 2.01384 17.4353 1.73115 16.5973C1.38036 17.4606 1.23536 18.402 1.30891 19.3386C1.30891 20.1133 1.30891 21.2009 2.05487 21.5733C2.09555 21.5978 2.14093 21.6122 2.18762 21.6155C2.2343 21.6187 2.28107 21.6107 2.32442 21.5921C2.36776 21.5734 2.40655 21.5446 2.43788 21.5078C2.4692 21.4711 2.49224 21.4272 2.50527 21.3797C2.71639 20.6943 2.30822 19.9047 2.19562 19.2045Z" fill="#FFEF5A"/>
<path d="M24.5043 27.6966C24.4969 27.66 24.4797 27.6265 24.4547 27.6001C24.4297 27.5736 24.3981 27.5554 24.3635 27.5476C23.6457 27.3688 23.0405 28.3074 22.6042 28.7693C21.9536 29.327 21.5059 30.1062 21.3374 30.9742C21.3372 30.9873 21.3398 31.0003 21.3449 31.0123C21.35 31.0242 21.3575 31.0348 21.3669 31.0434C21.3763 31.0519 21.3874 31.0581 21.3993 31.0616C21.4112 31.0651 21.4237 31.0658 21.4359 31.0636C22.1479 30.7048 22.7845 30.1982 23.3079 29.5738C23.7583 29.0673 24.6591 28.4564 24.5043 27.6966Z" fill="#FFEF5A"/>
<path d="M32.7944 16.4632C32.7274 16.3487 32.621 16.2662 32.4977 16.2329C32.3744 16.1995 32.2437 16.218 32.1329 16.2844C31.5418 16.7016 31.4855 17.8935 31.3307 18.5788C31.2603 18.8917 30.8099 20.2176 31.4151 20.2623C32.0203 20.307 32.2455 19.2939 32.4003 18.8917C32.5552 18.4894 33.1885 17.1038 32.7944 16.4632Z" fill="#FFEF5A"/>
<path d="M18.3397 10.0271C17.9998 9.76653 17.5911 9.62579 17.1715 9.62485H16.5803C16.366 9.66288 16.1499 9.68775 15.9329 9.69934C16.0282 9.84476 16.1316 9.98406 16.2425 10.1165C16.3984 10.2624 16.5802 10.3738 16.7774 10.4443C17.2107 10.6799 17.7037 10.7634 18.1848 10.6826C18.2427 10.6581 18.2941 10.6193 18.3351 10.5696C18.376 10.5199 18.4052 10.4607 18.4203 10.3967C18.4354 10.3327 18.436 10.2659 18.422 10.2016C18.408 10.1374 18.3797 10.0776 18.3397 10.0271Z" fill="#FFEF5A"/>
<path d="M19.8455 3.41224C19.5643 3.32227 19.2675 3.30099 18.9773 3.35003C18.6872 3.39906 18.4114 3.51711 18.1706 3.69531C17.6568 3.91061 17.2088 4.2714 16.8757 4.73819C16.8634 4.75071 16.8536 4.76574 16.8468 4.78238C16.8401 4.79903 16.8367 4.81694 16.8367 4.83503C16.8367 4.85313 16.8401 4.87104 16.8468 4.88768C16.8536 4.90432 16.8634 4.91935 16.8757 4.93187C17.3505 4.99527 17.8328 4.93912 18.2832 4.76799C18.8222 4.67676 19.3416 4.48508 19.8174 4.20185C19.8749 4.15665 19.9221 4.09835 19.9555 4.03126C19.9889 3.96416 20.0077 3.88998 20.0104 3.81419C20.0131 3.7384 19.9997 3.66294 19.9711 3.59337C19.9426 3.5238 19.8997 3.4619 19.8455 3.41224Z" fill="#FFEF5A"/>
<path d="M30.2751 9.52058C29.7402 8.87995 29.1632 8.31381 28.6142 7.68808C28.6142 7.68808 28.5157 7.68808 28.5439 7.68808C28.7502 8.07647 28.9064 8.49236 29.0083 8.92465C29.1696 9.39318 29.3576 9.85091 29.5713 10.2953C29.8528 10.9061 30.5284 11.9341 31.2744 11.5319C31.337 11.4956 31.3886 11.4414 31.4235 11.3756C31.4583 11.3097 31.4749 11.2348 31.4715 11.1594C31.4152 10.5933 30.6692 10.0271 30.2751 9.52058Z" fill="#FFEF5A"/>
<path d="M7.75521 7.04745C7.34138 7.56404 7.00008 8.14108 6.74182 8.76076C6.37771 9.36575 6.12463 10.038 5.99585 10.7422C5.99585 10.9061 6.16475 11.0253 6.3055 10.9955C6.91603 10.719 7.41456 10.223 7.71299 9.59507C8.10984 8.9806 8.44032 8.32095 8.69823 7.62849C8.92343 7.04745 8.14931 6.5707 7.75521 7.04745Z" fill="#FFEF5A"/>
<path d="M3.75792 12.828C3.74356 12.8171 3.72633 12.8112 3.70866 12.8112C3.69098 12.8112 3.67375 12.8171 3.6594 12.828C3.23715 13.0515 3.08233 13.8709 2.94158 14.3178C2.64497 14.9502 2.57015 15.6736 2.73045 16.3589C2.7848 16.4513 2.86049 16.5275 2.95038 16.5803C3.04026 16.6332 3.14138 16.6609 3.24419 16.6609C3.347 16.6609 3.44811 16.6332 3.538 16.5803C3.62788 16.5275 3.70357 16.4513 3.75792 16.3589C3.95903 15.7627 4.03118 15.1263 3.96904 14.4966C3.96904 13.9901 4.08164 13.1856 3.75792 12.828Z" fill="#FF7900"/>
<path d="M9.26101 28.4862C8.48439 28.0458 7.60672 27.8445 6.72753 27.9052C6.7373 27.8161 6.7373 27.7261 6.72753 27.637C6.71317 27.2102 6.60729 26.7924 6.41788 26.4153C6.30284 26.0137 6.10036 25.6463 5.82673 25.3426C5.78332 25.2957 5.72895 25.2618 5.66915 25.2443C5.60935 25.2268 5.54625 25.2263 5.48623 25.243C5.42621 25.2596 5.37141 25.2928 5.3274 25.3391C5.28338 25.3853 5.25171 25.4431 5.23559 25.5065C5.15797 25.9341 5.18708 26.3757 5.32004 26.7878C5.41856 27.2198 5.58746 27.935 5.99563 28.1286C6.09336 28.1474 6.19347 28.1474 6.29121 28.1286C6.29121 28.1286 6.29121 28.2031 6.29121 28.2329C6.56635 28.5094 6.89901 28.7135 7.26237 28.8289C7.77342 29.0464 8.29491 29.2354 8.82469 29.395C9.41583 29.6483 9.89438 28.7544 9.26101 28.4862Z" fill="#FF7900"/>
<path d="M16.7068 31.6298C16.3817 32.8424 16.3382 34.1202 16.5801 35.3544C16.6137 35.4495 16.6769 35.5297 16.7593 35.5818C16.8416 35.6338 16.9383 35.6546 17.0334 35.6407C17.1284 35.6269 17.2162 35.5791 17.2822 35.5054C17.3482 35.4317 17.3885 35.3364 17.3965 35.2352C17.2951 34.0098 17.0638 32.8004 16.7068 31.6298Z" fill="#FF7900"/>
<path d="M28.4735 27.056C28.0231 26.5643 27.3335 26.9219 26.8127 27.056C26.0333 27.5009 25.1847 27.7936 24.3073 27.9201C24.285 27.9201 24.2635 27.9295 24.2476 27.9463C24.2318 27.963 24.2229 27.9858 24.2229 28.0095C24.2229 28.0332 24.2318 28.0559 24.2476 28.0727C24.2635 28.0894 24.285 28.0989 24.3073 28.0989C24.9722 28.349 25.6921 28.3853 26.3764 28.2031C26.7705 28.1138 27.1505 27.9499 27.5446 27.8307C27.9387 27.7115 28.2483 27.8307 28.5017 27.4284C28.5378 27.3723 28.5547 27.3047 28.5496 27.2369C28.5445 27.1692 28.5176 27.1053 28.4735 27.056Z" fill="#FF7900"/>
<path d="M28.5298 21.6478C28.5104 21.573 28.473 21.5048 28.4211 21.45C28.3693 21.3951 28.3049 21.3555 28.2342 21.335C27.5868 21.2009 27.0941 21.916 26.6719 22.3332C26.1071 22.778 25.6291 23.3346 25.2644 23.972C25.194 24.121 25.2644 24.3593 25.4615 24.3444C26.169 24.2432 26.8337 23.9276 27.3756 23.4356C27.8542 22.944 28.6705 22.4077 28.5298 21.6478Z" fill="#FF7900"/>
<path d="M34.1034 15.2713C33.9814 14.707 33.7922 14.1613 33.5404 13.6474C33.5312 13.635 33.5194 13.625 33.506 13.6181C33.4926 13.6112 33.4779 13.6076 33.463 13.6076C33.4481 13.6076 33.4334 13.6112 33.42 13.6181C33.4066 13.625 33.3948 13.635 33.3856 13.6474C33.1518 14.1622 33.097 14.7478 33.2308 15.3011C33.2232 15.9426 33.4217 16.5677 33.7937 17.074C33.8445 17.1257 33.9071 17.1626 33.9754 17.1811C34.0437 17.1996 34.1153 17.1991 34.1833 17.1796C34.2514 17.1601 34.3134 17.1223 34.3636 17.0699C34.4137 17.0174 34.4501 16.9521 34.4693 16.8804C34.4933 16.3182 34.3665 15.7603 34.1034 15.2713Z" fill="#FF7900"/>
<path d="M26.9534 3.41224C26.9344 3.40357 26.9136 3.40059 26.8931 3.40361C26.8727 3.40664 26.8534 3.41556 26.8374 3.42941C26.8215 3.44325 26.8094 3.46148 26.8025 3.4821C26.7957 3.50272 26.7943 3.52494 26.7986 3.54633C26.9816 4.23165 27.8401 7.24113 28.9239 6.52601C30.0077 5.81088 27.4883 3.74001 26.9534 3.41224Z" fill="#FF7900"/>
<path d="M25.6446 2.35446C25.056 1.70216 24.5193 0.999555 24.04 0.253784H23.9556C23.9666 1.2861 24.298 2.28595 24.8986 3.09937C25.3771 3.68041 26.0527 2.9057 25.6446 2.35446Z" fill="#FF7900"/>
<path d="M17.481 1.68404C16.8898 0.998711 15.6512 1.56485 15.0319 1.89261C14.4126 2.22038 13.6245 2.9504 13.8637 3.8592C13.8703 3.86845 13.8788 3.87596 13.8886 3.88113C13.8983 3.8863 13.9091 3.889 13.92 3.889C13.931 3.889 13.9417 3.8863 13.9515 3.88113C13.9613 3.87596 13.9698 3.86845 13.9763 3.8592C14.5378 3.46076 15.1699 3.18707 15.8342 3.05469C16.4113 2.89081 17.2417 2.9057 17.5654 2.32467C17.6148 2.22154 17.6332 2.10486 17.6181 1.99033C17.603 1.8758 17.5552 1.76891 17.481 1.68404Z" fill="#FF7900"/>
<path d="M13.1176 4.90208C12.6812 4.877 12.2438 4.92732 11.8227 5.05106C11.4684 5.21091 11.1009 5.3356 10.7249 5.42352C10.7249 5.42352 10.7249 5.42352 10.7249 5.42352C11.0757 5.66511 11.4482 5.8697 11.8368 6.03435C12.2956 6.1819 12.7854 6.1819 13.2443 6.03435C13.3653 5.993 13.469 5.90844 13.5377 5.79512C13.6063 5.68181 13.6357 5.54677 13.6207 5.41308C13.6058 5.2794 13.5474 5.15535 13.4557 5.06215C13.3639 4.96895 13.2444 4.91237 13.1176 4.90208Z" fill="#FF7900"/>
<path d="M5.37635 8.37339C4.41926 7.79235 2.73027 8.73095 3.16659 10.0271C3.1743 10.0394 3.18475 10.0495 3.19703 10.0565C3.20931 10.0634 3.22303 10.0671 3.23697 10.0671C3.2509 10.0671 3.26462 10.0634 3.2769 10.0565C3.28918 10.0495 3.29964 10.0394 3.30734 10.0271C3.35792 9.96065 3.42003 9.90503 3.49031 9.86323H3.68736C3.87034 9.86323 4.05331 9.86323 4.25036 9.74404C4.50341 9.72448 4.7493 9.64628 4.97063 9.51498C5.19197 9.38368 5.38333 9.20248 5.53117 8.98422C5.58362 8.88066 5.5968 8.75984 5.56803 8.64636C5.53927 8.53287 5.47072 8.43526 5.37635 8.37339Z" fill="#FF7900"/>
<path d="M10.0635 21.9458C10.0635 21.484 10.0635 20.9923 9.92276 20.5454C9.90168 20.1807 9.82071 19.8228 9.68349 19.4876L9.59904 19.3833C9.54357 19.3688 9.48561 19.3688 9.43014 19.3833L9.28939 19.4727C9.07549 19.7509 8.95648 20.0973 8.95159 20.456C8.91653 20.9221 8.91653 21.3903 8.95159 21.8564C8.90534 22.2961 8.97858 22.7406 9.16272 23.1377C9.21424 23.2271 9.28661 23.3009 9.37288 23.3522C9.45915 23.4035 9.55641 23.4304 9.65534 23.4304C9.75427 23.4304 9.85153 23.4035 9.9378 23.3522C10.0241 23.3009 10.0964 23.2271 10.148 23.1377C10.2464 22.7416 10.2167 22.3219 10.0635 21.9458Z" fill="#FF7900"/>
<path d="M24.5605 25.9237C23.8311 25.9456 23.1266 26.2089 22.546 26.6766C21.9653 27.1442 21.5377 27.7927 21.3232 28.5309C21.3232 28.5309 21.3232 28.665 21.4077 28.6501C22.0064 28.528 22.5789 28.2907 23.0967 27.9499C23.7599 27.6604 24.3626 27.2351 24.8701 26.6984C24.9269 26.6331 24.9648 26.552 24.9792 26.4645C24.9935 26.3771 24.9838 26.2871 24.9511 26.2054C24.9185 26.1237 24.8642 26.0537 24.795 26.0037C24.7257 25.9537 24.6443 25.9259 24.5605 25.9237Z" fill="#FF7900"/>
<path d="M30.5846 3.6655C30.5458 4.60549 30.6215 5.54685 30.8098 6.46639C30.8413 6.55393 30.8998 6.62767 30.9758 6.67573C31.0518 6.7238 31.1408 6.74338 31.2286 6.73134C31.3164 6.71929 31.3978 6.67632 31.4597 6.60934C31.5216 6.54235 31.5604 6.45527 31.5698 6.3621C31.4888 5.38272 31.1472 4.44769 30.5846 3.6655Z" fill="#FF7900"/>
<path d="M24.4199 5.03615C23.789 4.92082 23.1399 5.03656 22.5795 5.36429C22.0191 5.69201 21.581 6.21213 21.3375 6.83885C21.3315 6.87523 21.3327 6.91252 21.341 6.9484C21.3492 6.98427 21.3644 7.01794 21.3856 7.04732C21.4067 7.07669 21.4334 7.10112 21.4638 7.11909C21.4943 7.13705 21.528 7.14816 21.5627 7.15172C22.0213 7.10344 22.4688 6.97243 22.8857 6.76436C23.4564 6.61696 24.0125 6.41243 24.5466 6.15353C24.6451 6.09395 24.7248 6.00496 24.7758 5.89769C24.8268 5.79041 24.8468 5.66961 24.8332 5.55038C24.8197 5.43114 24.7733 5.31877 24.6998 5.22731C24.6263 5.13585 24.5289 5.06936 24.4199 5.03615Z" fill="#FF7900"/>
<path d="M26.4185 11.3382C26.1933 10.5336 25.5459 10.2953 24.8562 10.1016C24.4886 10.029 24.1173 9.9793 23.7443 9.95261C23.3361 9.95261 22.8857 10.0271 22.4775 9.95261C22.6 10.2417 22.7825 10.4977 23.0117 10.7015C23.2408 10.9054 23.5105 11.0517 23.8006 11.1296C24.4778 11.4481 25.1857 11.6878 25.9118 11.8447C25.9789 11.8601 26.0485 11.858 26.1147 11.8385C26.1808 11.819 26.2415 11.7828 26.2914 11.7329C26.3413 11.683 26.3789 11.621 26.4011 11.5522C26.4232 11.4834 26.4292 11.4099 26.4185 11.3382Z" fill="#FF7900"/>
<path d="M18.7336 0.626221C18.7336 0.626221 18.5365 0.626221 18.5225 0.730509C18.5264 1.33614 18.671 1.93144 18.9435 2.46402C19.2159 2.9966 19.6078 3.45012 20.0848 3.78468C20.1031 3.81108 20.1292 3.83036 20.1589 3.83951C20.1886 3.84867 20.2204 3.84719 20.2492 3.83531C20.2781 3.82343 20.3024 3.80182 20.3185 3.77381C20.3346 3.7458 20.3415 3.71297 20.3381 3.68039C20.3223 3.07228 20.1682 2.47717 19.8889 1.94551C19.6096 1.41384 19.2133 0.961296 18.7336 0.626221Z" fill="#FF7900"/>
<path d="M4.26462 10.7273C4.17647 10.1511 3.90301 9.62484 3.4905 9.23749C3.4905 9.23749 3.4905 9.23749 3.40605 9.23749C3.17656 9.69386 3.08796 10.2149 3.1527 10.7273C3.1527 11.2488 3.1527 12.0831 3.68755 12.3364C3.76499 12.3968 3.85872 12.4295 3.95497 12.4295C4.05122 12.4295 4.14494 12.3968 4.22239 12.3364C4.53204 11.8298 4.34906 11.2339 4.26462 10.7273Z" fill="#FF227C"/>
<path d="M5.67188 17.4763C5.69657 17.4256 5.70945 17.3694 5.70945 17.3124C5.70945 17.2554 5.69657 17.1992 5.67188 17.1485C5.61541 17.0516 5.53829 16.9699 5.44668 16.9102C5.35029 16.859 5.23943 16.8475 5.13547 16.8777C5.03151 16.908 4.94181 16.9779 4.88368 17.0741C4.54803 17.7885 4.41599 18.5908 4.50366 19.3833C4.50366 19.5493 4.56594 19.7084 4.6768 19.8258C4.78766 19.9431 4.93803 20.009 5.09481 20.009C5.25159 20.009 5.40195 19.9431 5.51281 19.8258C5.62367 19.7084 5.68595 19.5493 5.68595 19.3833C5.72351 18.7481 5.7188 18.1108 5.67188 17.4763Z" fill="#FF227C"/>
<path d="M1.44959 20.7093C1.35132 20.0914 1.14102 19.4995 0.830298 18.9662C0.830298 18.9662 0.830298 18.9662 0.830298 18.9662C0.739157 19.457 0.692031 19.9558 0.689549 20.456C0.62301 21.0534 0.65636 21.6586 0.788074 22.2438C0.81094 22.3319 0.860509 22.4097 0.929165 22.4651C0.997821 22.5205 1.08176 22.5505 1.1681 22.5505C1.25443 22.5505 1.33837 22.5205 1.40703 22.4651C1.47568 22.4097 1.52525 22.3319 1.54812 22.2438C1.61251 21.7305 1.57901 21.2087 1.44959 20.7093Z" fill="#FF227C"/>
<path d="M7.81166 26.6537C7.25693 26.2373 6.59156 26.0182 5.91155 26.028C5.29845 25.898 4.66427 25.9338 4.06774 26.1323C4.052 26.1489 4.0395 26.1686 4.03098 26.1903C4.02245 26.2121 4.01807 26.2354 4.01807 26.2589C4.01807 26.2824 4.02245 26.3057 4.03098 26.3275C4.0395 26.3492 4.052 26.3689 4.06774 26.3855C4.40967 26.7838 4.873 27.0423 5.37671 27.1156C6.06957 27.3727 6.79618 27.5134 7.53017 27.5327C7.61985 27.5187 7.70414 27.4787 7.77375 27.4173C7.84336 27.3558 7.8956 27.2752 7.9247 27.1843C7.95381 27.0934 7.95866 26.9958 7.93871 26.9022C7.91877 26.8085 7.8748 26.7226 7.81166 26.6537Z" fill="#FF227C"/>
<path d="M11.6961 24.9255C11.288 24.702 10.8798 24.9255 10.4435 24.9255C9.92729 25.0104 9.39899 24.9164 8.93747 24.6573C8.85302 24.6573 8.76857 24.6573 8.81079 24.8063C8.91206 25.0808 9.07535 25.3248 9.28637 25.517C9.49739 25.7092 9.74971 25.8437 10.0212 25.9088C10.5561 26.0429 11.5413 26.028 11.8369 25.4469C11.8732 25.3561 11.879 25.2548 11.8534 25.1599C11.8278 25.0651 11.7723 24.9823 11.6961 24.9255Z" fill="#FF227C"/>
<path d="M12.1749 32.1214C12.1749 31.8681 11.7527 30.9146 11.3727 31.2126C10.9926 31.5106 11.0489 32.032 11.063 32.3747C11.0771 32.7174 11.063 33.5964 11.4993 33.8645C11.6063 33.9274 11.7295 33.9526 11.8509 33.9365C11.9723 33.9205 12.0858 33.8639 12.1749 33.7751C12.569 33.3729 12.3016 32.6429 12.1749 32.1214Z" fill="#FF227C"/>
<path d="M5.96771 29.544C5.7844 28.9441 5.49282 28.3875 5.10914 27.9052C5.10914 27.9052 5.10914 27.9052 5.10914 27.9052C5.03882 28.5437 5.03882 29.1886 5.10914 29.8271C5.22174 30.4677 6.05215 30.1846 5.96771 29.544Z" fill="#FF227C"/>
<path d="M25.2502 26.5494C25.2562 26.5049 25.2562 26.4598 25.2502 26.4153C25.1856 26.3124 25.0937 26.2319 24.986 26.1842C24.8783 26.1365 24.7596 26.1236 24.645 26.1472C23.9915 26.3045 23.3742 26.5983 22.8293 27.0113C22.3508 27.3241 21.7033 27.8456 21.6189 28.5011C21.6189 28.6799 21.6893 28.9332 21.9145 28.9034C22.4642 28.7628 22.9844 28.5153 23.4486 28.1733C24.0526 27.8876 24.6279 27.5382 25.1658 27.1305C25.2318 27.0528 25.2749 26.9565 25.2899 26.8533C25.3049 26.7501 25.2911 26.6445 25.2502 26.5494Z" fill="#FF227C"/>
<path d="M19.5078 25.0894C19.0292 24.6573 18.4803 25.0894 17.9736 25.2383C17.4529 25.3901 16.9716 25.6652 16.5661 26.0429C16.5403 26.0707 16.5259 26.1081 16.5259 26.1471C16.5259 26.1861 16.5403 26.2236 16.5661 26.2514C17.0265 26.3874 17.5132 26.3874 17.9736 26.2514C18.4803 26.2514 19.3811 26.028 19.5218 25.4022C19.5421 25.3524 19.5513 25.2983 19.5489 25.2441C19.5464 25.1899 19.5324 25.137 19.5078 25.0894Z" fill="#FF227C"/>
<path d="M18.6915 30.125C18.4241 29.7675 18.2411 29.3354 17.9455 28.9928C17.9104 28.9575 17.8673 28.9324 17.8204 28.9199C17.7735 28.9074 17.7243 28.9079 17.6776 28.9214C17.6309 28.9348 17.5883 28.9608 17.5539 28.9968C17.5194 29.0328 17.4944 29.0776 17.481 29.1268C17.4274 29.3976 17.4259 29.677 17.4767 29.9484C17.5275 30.2197 17.6295 30.4774 17.7766 30.7061C18.0018 31.1679 18.5789 31.8085 19.0997 31.5851C19.1742 31.5631 19.2403 31.5166 19.2883 31.4524C19.3364 31.3881 19.364 31.3094 19.3671 31.2275C19.3671 30.7508 18.9448 30.4677 18.6915 30.125Z" fill="#FF227C"/>
<path d="M24.7575 32.1214C24.2649 31.5553 23.5049 31.9277 22.9137 32.1214C22.3226 32.3151 21.7314 32.7323 21.6892 33.3431C21.6892 33.3945 21.7085 33.4437 21.7428 33.48C21.7771 33.5164 21.8237 33.5368 21.8722 33.5368C22.3565 33.4476 22.829 33.2975 23.2797 33.0898C23.8286 32.911 24.476 32.9408 24.6872 32.33C24.715 32.3047 24.7361 32.2722 24.7485 32.2356C24.7608 32.199 24.7639 32.1597 24.7575 32.1214Z" fill="#FF227C"/>
<path d="M29.5994 22.2438C29.0263 22.4797 28.5351 22.8956 28.1919 23.4357C28.0793 23.5995 27.3051 24.3147 27.5163 24.553C27.7274 24.7914 28.5156 24.553 28.8393 24.3296C29.3866 24.0222 29.8663 23.5957 30.2468 23.0781C30.293 22.9758 30.3106 22.8618 30.2977 22.7493C30.2848 22.6367 30.2418 22.5305 30.1739 22.4429C30.1059 22.3553 30.0158 22.2901 29.914 22.2548C29.8122 22.2195 29.7031 22.2157 29.5994 22.2438Z" fill="#FF227C"/>
<path d="M33.2027 26.6239C33.1041 26.2068 32.5271 26.4004 32.2737 26.4898C31.7616 26.6106 31.2809 26.8497 30.8662 27.19C30.8569 27.1998 30.8494 27.2113 30.8444 27.2241C30.8393 27.2369 30.8367 27.2507 30.8367 27.2645C30.8367 27.2784 30.8393 27.2922 30.8444 27.3049C30.8494 27.3177 30.8569 27.3293 30.8662 27.339C31.0508 27.4919 31.2664 27.5971 31.4961 27.6462C31.7258 27.6954 31.9631 27.6871 32.1893 27.6221C32.4989 27.5625 33.3293 27.1454 33.2027 26.6239Z" fill="#FF227C"/>
<path d="M35.5811 15.4501C35.5811 15.3237 35.5336 15.2024 35.4492 15.113C35.3647 15.0236 35.2501 14.9734 35.1307 14.9734C34.6662 14.9734 34.3425 15.4203 34.061 15.7481C33.9179 15.9259 33.7951 16.1209 33.695 16.3291C33.5965 16.5228 33.695 16.7165 33.5684 16.9102V16.9847L33.8358 17.0592C33.8559 17.9495 34.0987 18.8184 34.5395 19.577C34.5565 19.6013 34.5799 19.6195 34.6069 19.6293C34.6338 19.6392 34.663 19.6401 34.6904 19.632C34.7179 19.624 34.7424 19.6073 34.7607 19.5841C34.779 19.561 34.7902 19.5325 34.7929 19.5025C34.8162 18.6139 34.7214 17.7262 34.5114 16.8655L34.7507 16.6718C34.9586 16.5365 35.139 16.3588 35.2816 16.1491C35.4241 15.9394 35.5259 15.7018 35.5811 15.4501Z" fill="#FF227C"/>
<path d="M35.0323 9.87812C35.0323 9.22259 35.0323 8.38828 34.3286 8.01582C34.2922 7.98022 34.2444 7.96045 34.1949 7.96045C34.1453 7.96045 34.0976 7.98022 34.0611 8.01582C33.6389 8.62665 33.9204 9.50566 34.0611 10.1612C34.1241 10.5274 34.233 10.8832 34.3849 11.219C34.5115 11.4722 34.6664 11.5169 34.8353 11.6957C35.0042 11.8745 34.8353 11.6957 34.8353 11.6957C34.8353 11.6957 34.976 11.2786 34.9901 11.0551C35.0297 10.6643 35.0438 10.271 35.0323 9.87812Z" fill="#FF227C"/>
<path d="M11.105 6.74946C10.6264 6.91335 10.0212 7.13682 9.81009 7.67316C9.80073 7.70874 9.80419 7.74674 9.81979 7.77977C9.8354 7.8128 9.86204 7.83853 9.89454 7.85194C10.1295 7.96197 10.3836 8.01881 10.6405 8.01881C10.8974 8.01881 11.1515 7.96197 11.3865 7.85194C11.9917 7.56888 11.7243 6.52599 11.105 6.74946Z" fill="#FF227C"/>
<path d="M13.3711 1.41584C12.7096 1.41584 12.2592 2.10117 11.8369 2.60771C11.6962 2.78649 10.9502 3.6506 11.2599 3.91877C11.5695 4.18694 12.2592 3.91877 12.6674 3.68039C12.9906 3.51896 13.2765 3.28461 13.5051 2.99377C13.7336 2.70294 13.8993 2.36268 13.9904 1.99688C13.9888 1.9146 13.9712 1.83356 13.9386 1.75885C13.906 1.68414 13.8591 1.6174 13.8009 1.56281C13.7428 1.50823 13.6745 1.46699 13.6006 1.44169C13.5266 1.4164 13.4484 1.4076 13.3711 1.41584Z" fill="#FF227C"/>
<path d="M24.3638 0.670932C23.8484 0.43295 23.2934 0.30632 22.7311 0.298472C22.2807 0.209082 21.8022 -0.118683 21.3236 0.0451995C21.2715 0.0557277 21.2245 0.0854205 21.191 0.129036C21.1576 0.172652 21.1397 0.227385 21.1407 0.283574C21.1407 0.954001 21.8726 1.35626 22.3652 1.56483C22.6777 1.76308 23.0353 1.86779 23.3997 1.86779C23.7641 1.86779 24.1216 1.76308 24.4342 1.56483C24.5004 1.51003 24.5527 1.43864 24.5864 1.3571C24.62 1.27557 24.634 1.18644 24.627 1.09777C24.6201 1.00909 24.5923 0.923648 24.5464 0.849135C24.5004 0.774622 24.4377 0.713381 24.3638 0.670932Z" fill="#FF227C"/>
<path d="M18.1845 7.3603C17.9488 7.18067 17.6726 7.06963 17.3837 7.03826C17.0947 7.00689 16.803 7.05628 16.5378 7.18152C16.4918 7.20921 16.4516 7.2464 16.4195 7.29088C16.3874 7.33536 16.3641 7.38623 16.351 7.44044C16.3378 7.49466 16.3351 7.55111 16.3431 7.60645C16.351 7.66179 16.3693 7.71488 16.397 7.76256C16.7218 8.19269 17.1723 8.4966 17.6778 8.62666C18.0438 8.62666 18.8742 8.79054 19.0853 8.2542C19.2964 7.71786 18.4097 7.50928 18.1845 7.3603Z" fill="#FF227C"/>
<path d="M28.6563 5.55759C28.2306 5.09334 27.6608 4.80761 27.0518 4.75308C27.0518 4.75308 27.0518 4.75308 27.0518 4.75308C27.1345 5.32455 27.3974 5.8496 27.7977 6.24292C28.037 6.57068 28.8252 8.01583 29.3319 7.3603C29.8386 6.70477 29.1208 5.97475 28.6563 5.55759Z" fill="#FF227C"/>
<path d="M27.9951 14.6605C27.7699 13.6474 27.9247 11.9192 27.0943 11.2339C27.0943 11.2339 27.0943 11.2339 27.0098 11.2339C26.8472 11.8086 26.7712 12.407 26.7846 13.0068C26.6951 13.7368 26.7773 14.4788 27.0239 15.1671C27.221 15.7779 28.1921 15.3011 27.9951 14.6605Z" fill="#FF227C"/>
<path d="M25.7287 15.3607C25.7287 15.1224 25.5035 15.1224 25.4049 14.9734C25.3064 14.8244 25.4049 14.9734 25.4049 14.9734C25.4049 14.9734 25.1375 15.2565 25.0671 15.3756C24.901 15.7074 24.7689 16.057 24.673 16.4185C24.5323 16.9549 24.3493 17.9084 24.8842 18.2212C24.9107 18.2418 24.9428 18.2529 24.9757 18.2529C25.0086 18.2529 25.0406 18.2418 25.0671 18.2212C25.6161 17.8935 25.7146 16.9698 25.8272 16.3887C25.8795 16.0428 25.8455 15.6885 25.7287 15.3607Z" fill="#FF227C"/>
<path d="M5.95369 8.73094C5.95369 8.29889 5.95369 7.64336 5.58775 7.3305C5.5346 7.27678 5.47078 7.23632 5.40095 7.2121C5.33113 7.18787 5.25706 7.18048 5.18419 7.19048C5.11132 7.20048 5.04148 7.22761 4.9798 7.26988C4.91811 7.31215 4.86615 7.3685 4.8277 7.43478C4.65652 7.84197 4.61694 8.29754 4.7151 8.73094C4.7151 9.19279 4.7151 9.99731 5.37662 9.99731C6.03814 9.99731 5.98184 9.19279 5.95369 8.73094Z" fill="#45DDC3"/>
<path d="M5.84102 13.856C6.02399 13.6623 5.84102 13.3942 5.5736 13.4984C5.39562 13.6092 5.24284 13.76 5.12609 13.9403C5.00933 14.1205 4.93146 14.3257 4.898 14.5413C4.75725 15.0628 4.58835 16.2099 5.16543 16.493C5.22651 16.5257 5.29401 16.5428 5.36247 16.5428C5.43094 16.5428 5.49844 16.5257 5.55952 16.493C5.98177 16.1504 5.8551 15.614 5.8551 15.1075C5.80892 14.692 5.8042 14.2725 5.84102 13.856Z" fill="#45DDC3"/>
<path d="M9.5851 18.2212C9.36173 17.9782 9.07859 17.8062 8.76768 17.7246C8.45678 17.6429 8.1305 17.655 7.82574 17.7594C7.30497 17.8786 6.69975 18.5788 7.13607 19.1002C7.42374 19.3671 7.7952 19.5105 8.17761 19.5025C8.54001 19.5788 8.91305 19.5788 9.27545 19.5025C9.39808 19.4673 9.50969 19.3983 9.5989 19.3026C9.6881 19.2068 9.75169 19.0877 9.78317 18.9574C9.81466 18.8271 9.81292 18.6903 9.77812 18.561C9.74332 18.4317 9.67671 18.3144 9.5851 18.2212Z" fill="#45DDC3"/>
<path d="M10.5701 13.8262C10.4475 13.6395 10.2893 13.4822 10.1056 13.3643C9.85228 13.1558 9.52856 13.126 9.26114 12.9323C8.99371 12.7386 9.02186 13.0068 9.09224 13.1111C9.16769 13.2307 9.21143 13.3697 9.21891 13.5133C9.25972 13.7129 9.33103 13.9042 9.43004 14.0795C9.53845 14.281 9.69342 14.4502 9.88043 14.5711C10.0628 14.6381 10.2611 14.6381 10.4434 14.5711C10.5105 14.5568 10.5703 14.5172 10.6117 14.4596C10.6532 14.402 10.6734 14.3304 10.6686 14.2582C10.6638 14.1086 10.6303 13.9616 10.5701 13.8262Z" fill="#45DDC3"/>
<path d="M3.43412 18.8171C3.3444 18.5315 3.23624 18.2528 3.1104 17.9828C2.95428 17.7447 2.81322 17.4958 2.68815 17.2379H2.57556C2.57556 17.4614 2.46296 17.6402 2.43481 17.8785C2.42808 18.1741 2.45645 18.4694 2.51926 18.7575C2.51926 19.13 2.74445 20.0388 3.25115 20.0388C3.75785 20.0388 3.5045 19.0853 3.43412 18.8171Z" fill="#45DDC3"/>
<path d="M5.461 25.0298C5.33432 24.553 5.03875 23.8528 4.51798 23.7932C4.45817 23.7927 4.39929 23.8089 4.34736 23.8403C4.29543 23.8717 4.25231 23.9172 4.2224 23.972C3.98313 24.3147 4.2224 25 4.32093 25.3576C4.44431 25.8679 4.73964 26.313 5.15135 26.609C5.18006 26.6308 5.21452 26.6426 5.24987 26.6426C5.28522 26.6426 5.31968 26.6308 5.3484 26.609C5.48583 26.3748 5.56782 26.1089 5.58743 25.834C5.60703 25.5591 5.56366 25.2832 5.461 25.0298Z" fill="#45DDC3"/>
<path d="M11.5555 28.2478C11.2257 28.0542 10.8448 27.9809 10.4717 28.0393C10.0179 28.1943 9.53902 28.25 9.06421 28.2031C9.23019 28.3764 9.42001 28.5221 9.62721 28.6352C9.91242 28.7529 10.2102 28.8329 10.5139 28.8736C10.8658 28.8736 11.6681 29.3056 11.8088 28.7097C11.815 28.6147 11.7941 28.52 11.749 28.4377C11.7038 28.3554 11.6364 28.2893 11.5555 28.2478Z" fill="#45DDC3"/>
<path d="M15.9047 30.7359C15.636 30.4858 15.3095 30.3155 14.9585 30.2422C14.6074 30.1689 14.2443 30.1953 13.906 30.3187C13.8551 30.3509 13.8107 30.3934 13.7753 30.4438C13.74 30.4942 13.7144 30.5515 13.7 30.6124C13.6856 30.6733 13.6827 30.7367 13.6915 30.7987C13.7003 30.8608 13.7206 30.9205 13.7512 30.9742C13.9385 31.2879 14.2296 31.5164 14.5676 31.6149C14.7585 31.7125 14.9678 31.7632 15.1798 31.7632C15.3919 31.7632 15.6012 31.7125 15.7921 31.6149C15.8614 31.5713 15.9205 31.5118 15.9649 31.4406C16.0094 31.3695 16.0382 31.2887 16.049 31.2042C16.0598 31.1196 16.0525 31.0336 16.0275 30.9525C16.0025 30.8714 15.9605 30.7974 15.9047 30.7359Z" fill="#45DDC3"/>
<path d="M25.2081 28.1733C24.3073 27.5029 22.3931 28.9034 22.5479 30.0058C22.5513 30.0718 22.5776 30.1342 22.6218 30.181C22.6659 30.2277 22.7248 30.2555 22.7872 30.2591C23.2174 30.2252 23.6264 30.0479 23.9554 29.7526C24.1506 29.6086 24.3579 29.4839 24.5747 29.3801C24.7934 29.3254 25.0058 29.2455 25.2081 29.1417C25.2867 29.0913 25.3518 29.0202 25.3969 28.9354C25.4421 28.8506 25.4658 28.7549 25.4658 28.6575C25.4658 28.5602 25.4421 28.4645 25.3969 28.3797C25.3518 28.2948 25.2867 28.2238 25.2081 28.1733Z" fill="#45DDC3"/>
<path d="M29.1492 30.1548C28.6565 29.246 26.0527 30.4975 26.489 31.1083C26.9253 31.7192 29.7685 31.2722 29.1492 30.1548Z" fill="#45DDC3"/>
<path d="M31.4713 23.3463C31.1356 23.7883 30.8825 24.2939 30.7254 24.8361C30.6329 25.0948 30.553 25.3584 30.4861 25.6257C30.4861 25.7747 30.4861 25.9386 30.4861 26.0727C30.4861 26.2068 30.5846 26.2068 30.6409 26.0727C30.6972 25.9386 30.838 25.9833 30.9224 25.9237C31.1141 25.7605 31.2929 25.5811 31.4573 25.3873C31.8936 24.9876 32.2236 24.474 32.4143 23.8975C32.4143 23.4357 31.8795 22.8695 31.4713 23.3463Z" fill="#45DDC3"/>
<path d="M30.7957 17.2081C30.7557 17.1371 30.6991 17.0783 30.6312 17.0375C30.5634 16.9966 30.4867 16.9752 30.4086 16.9752C30.3305 16.9752 30.2538 16.9966 30.186 17.0375C30.1181 17.0783 30.0614 17.1371 30.0215 17.2081C29.6636 17.8994 29.4387 18.659 29.36 19.4429C29.2615 19.9345 29.0363 20.7539 29.36 21.2158C29.4022 21.277 29.4631 21.3208 29.5324 21.3398C29.6017 21.3588 29.6751 21.3519 29.74 21.3201C30.2749 21.0668 30.5423 20.1133 30.7112 19.577C30.8777 19.2092 30.971 18.8093 30.9856 18.4018C31.0001 17.9944 30.9355 17.5881 30.7957 17.2081Z" fill="#45DDC3"/>
<path d="M34.9762 10.0271C34.8776 9.68446 34.4413 8.86505 33.9768 9.16301C33.5124 9.46098 33.6531 10.2357 33.7657 10.7273C33.8771 11.3344 34.2111 11.8701 34.6947 12.2172C34.7441 12.2492 34.8008 12.2666 34.8588 12.2675C34.9167 12.2684 34.9739 12.2528 35.0242 12.2224C35.0746 12.1919 35.1162 12.1477 35.1449 12.0944C35.1736 12.0411 35.1882 11.9806 35.1873 11.9192C35.2056 11.2809 35.1344 10.6433 34.9762 10.0271Z" fill="#45DDC3"/>
<path d="M30.7116 13.8858C30.8507 13.7176 30.9215 13.4981 30.9086 13.275C30.889 12.8125 30.7888 12.3579 30.6131 11.9341C30.2893 11.0998 29.7404 10.0867 28.7411 10.2655C28.5489 10.3149 28.383 10.4431 28.2801 10.6219C28.1772 10.8007 28.1455 11.0155 28.1922 11.219C28.4033 11.7553 28.8678 12.4108 29.2056 13.0515C29.3637 13.4085 29.6061 13.7164 29.9093 13.9454C30.0641 14.0348 30.4442 14.2285 30.6271 13.9454C30.8101 13.6623 31.0072 13.5282 30.7116 13.8858Z" fill="#45DDC3"/>
<path d="M27.0942 9.25239C26.8747 8.90465 26.5454 8.6511 26.1652 8.53726C26.1512 8.53511 26.1368 8.53621 26.1232 8.54048C26.1096 8.54475 26.097 8.55209 26.0863 8.562C26.0756 8.57191 26.067 8.58414 26.0612 8.59788C26.0554 8.61161 26.0525 8.62651 26.0526 8.64155C25.9631 9.02427 26.0133 9.42867 26.1934 9.77383C26.4045 10.1314 26.686 10.5783 27.1364 10.5485C27.212 10.5463 27.285 10.5193 27.3455 10.4712C27.406 10.4232 27.451 10.3565 27.4742 10.2804C27.4766 9.89885 27.3405 9.5309 27.0942 9.25239Z" fill="#45DDC3"/>
<path opacity="0.8" d="M34.9197 23.242C34.0242 25.1567 32.9033 26.9438 31.5839 28.5607C30.1838 30.0346 28.6138 31.316 26.9111 32.3747C26.8266 32.3747 26.9111 32.5684 26.9111 32.5386C28.8284 31.7756 30.5461 30.5396 31.9217 28.9331C33.321 27.287 34.3379 25.3178 34.8915 23.1824L34.9197 23.242Z" fill="#FFFAD9"/>
</g>
</svg>
